<mxfile host="Electron" agent="Mozilla/5.0 (Windows NT 10.0; Win64; x64) AppleWebKit/537.36 (KHTML, like Gecko) draw.io/24.7.17 Chrome/128.0.6613.36 Electron/32.0.1 Safari/537.36" version="24.7.17">
  <diagram id="C5RBs43oDa-KdzZeNtuy" name="Page-1">
    <mxGraphModel dx="445" dy="2779" grid="0" gridSize="10" guides="1" tooltips="1" connect="1" arrows="1" fold="1" page="1" pageScale="1" pageWidth="827" pageHeight="1169" math="0" shadow="0">
      <root>
        <mxCell id="WIyWlLk6GJQsqaUBKTNV-0" />
        <mxCell id="WIyWlLk6GJQsqaUBKTNV-1" parent="WIyWlLk6GJQsqaUBKTNV-0" />
        <mxCell id="K1-UY6_NgtcS3bYRakbM-52" value="추가" style="swimlane;whiteSpace=wrap;html=1;" parent="WIyWlLk6GJQsqaUBKTNV-1" vertex="1">
          <mxGeometry y="-30" width="300" height="300" as="geometry" />
        </mxCell>
        <mxCell id="K1-UY6_NgtcS3bYRakbM-4" style="edgeStyle=orthogonalEdgeStyle;rounded=0;orthogonalLoop=1;jettySize=auto;html=1;" parent="K1-UY6_NgtcS3bYRakbM-52" source="K1-UY6_NgtcS3bYRakbM-1" target="K1-UY6_NgtcS3bYRakbM-3" edge="1">
          <mxGeometry relative="1" as="geometry" />
        </mxCell>
        <mxCell id="K1-UY6_NgtcS3bYRakbM-1" value="&lt;div&gt;아이템 추가 시도&lt;/div&gt;" style="rounded=0;whiteSpace=wrap;html=1;" parent="K1-UY6_NgtcS3bYRakbM-52" vertex="1">
          <mxGeometry x="17.5" y="40" width="100" height="40" as="geometry" />
        </mxCell>
        <mxCell id="K1-UY6_NgtcS3bYRakbM-7" style="edgeStyle=orthogonalEdgeStyle;rounded=0;orthogonalLoop=1;jettySize=auto;html=1;entryX=0.5;entryY=0;entryDx=0;entryDy=0;" parent="K1-UY6_NgtcS3bYRakbM-52" source="K1-UY6_NgtcS3bYRakbM-3" target="K1-UY6_NgtcS3bYRakbM-6" edge="1">
          <mxGeometry relative="1" as="geometry" />
        </mxCell>
        <mxCell id="K1-UY6_NgtcS3bYRakbM-9" style="edgeStyle=orthogonalEdgeStyle;rounded=0;orthogonalLoop=1;jettySize=auto;html=1;entryX=0;entryY=0.5;entryDx=0;entryDy=0;" parent="K1-UY6_NgtcS3bYRakbM-52" source="K1-UY6_NgtcS3bYRakbM-3" target="K1-UY6_NgtcS3bYRakbM-8" edge="1">
          <mxGeometry relative="1" as="geometry" />
        </mxCell>
        <mxCell id="K1-UY6_NgtcS3bYRakbM-3" value="추가할 용량이&amp;nbsp;&lt;div&gt;충분한가?&lt;/div&gt;" style="rhombus;whiteSpace=wrap;html=1;" parent="K1-UY6_NgtcS3bYRakbM-52" vertex="1">
          <mxGeometry x="10" y="130" width="115" height="70" as="geometry" />
        </mxCell>
        <mxCell id="K1-UY6_NgtcS3bYRakbM-6" value="배열 가장&amp;nbsp;&lt;span style=&quot;background-color: initial;&quot;&gt;마지막에 아이템 추가&lt;/span&gt;" style="rounded=0;whiteSpace=wrap;html=1;" parent="K1-UY6_NgtcS3bYRakbM-52" vertex="1">
          <mxGeometry x="17.5" y="240" width="100" height="40" as="geometry" />
        </mxCell>
        <mxCell id="K1-UY6_NgtcS3bYRakbM-13" style="edgeStyle=orthogonalEdgeStyle;rounded=0;orthogonalLoop=1;jettySize=auto;html=1;entryX=0.5;entryY=0;entryDx=0;entryDy=0;" parent="K1-UY6_NgtcS3bYRakbM-52" source="K1-UY6_NgtcS3bYRakbM-8" target="K1-UY6_NgtcS3bYRakbM-12" edge="1">
          <mxGeometry relative="1" as="geometry" />
        </mxCell>
        <mxCell id="K1-UY6_NgtcS3bYRakbM-8" value="현재용량의&lt;div&gt;2배짜리 배열 생성&lt;/div&gt;" style="rounded=0;whiteSpace=wrap;html=1;" parent="K1-UY6_NgtcS3bYRakbM-52" vertex="1">
          <mxGeometry x="167.5" y="145" width="110" height="40" as="geometry" />
        </mxCell>
        <mxCell id="K1-UY6_NgtcS3bYRakbM-10" value="yes" style="text;html=1;align=center;verticalAlign=middle;whiteSpace=wrap;rounded=0;" parent="K1-UY6_NgtcS3bYRakbM-52" vertex="1">
          <mxGeometry x="17.5" y="210" width="60" height="30" as="geometry" />
        </mxCell>
        <mxCell id="K1-UY6_NgtcS3bYRakbM-11" value="no" style="text;html=1;align=center;verticalAlign=middle;whiteSpace=wrap;rounded=0;" parent="K1-UY6_NgtcS3bYRakbM-52" vertex="1">
          <mxGeometry x="117.5" y="140" width="60" height="30" as="geometry" />
        </mxCell>
        <mxCell id="K1-UY6_NgtcS3bYRakbM-14" style="edgeStyle=orthogonalEdgeStyle;rounded=0;orthogonalLoop=1;jettySize=auto;html=1;entryX=1;entryY=0.5;entryDx=0;entryDy=0;" parent="K1-UY6_NgtcS3bYRakbM-52" source="K1-UY6_NgtcS3bYRakbM-12" target="K1-UY6_NgtcS3bYRakbM-6" edge="1">
          <mxGeometry relative="1" as="geometry" />
        </mxCell>
        <mxCell id="K1-UY6_NgtcS3bYRakbM-12" value="기존 배열 데이터&lt;div&gt;새 배열에 복제&lt;/div&gt;" style="rounded=0;whiteSpace=wrap;html=1;" parent="K1-UY6_NgtcS3bYRakbM-52" vertex="1">
          <mxGeometry x="167.5" y="240" width="110" height="40" as="geometry" />
        </mxCell>
        <mxCell id="K1-UY6_NgtcS3bYRakbM-53" value="탐색" style="swimlane;whiteSpace=wrap;html=1;" parent="WIyWlLk6GJQsqaUBKTNV-1" vertex="1">
          <mxGeometry x="310" y="-30" width="310" height="300" as="geometry" />
        </mxCell>
        <mxCell id="K1-UY6_NgtcS3bYRakbM-19" style="edgeStyle=orthogonalEdgeStyle;rounded=0;orthogonalLoop=1;jettySize=auto;html=1;entryX=0.5;entryY=0;entryDx=0;entryDy=0;" parent="K1-UY6_NgtcS3bYRakbM-53" source="K1-UY6_NgtcS3bYRakbM-15" target="K1-UY6_NgtcS3bYRakbM-18" edge="1">
          <mxGeometry relative="1" as="geometry" />
        </mxCell>
        <mxCell id="K1-UY6_NgtcS3bYRakbM-15" value="&lt;div&gt;아이템 찾기 시도&lt;/div&gt;" style="rounded=0;whiteSpace=wrap;html=1;" parent="K1-UY6_NgtcS3bYRakbM-53" vertex="1">
          <mxGeometry x="39.379999999999995" y="40" width="100" height="40" as="geometry" />
        </mxCell>
        <mxCell id="K1-UY6_NgtcS3bYRakbM-21" style="edgeStyle=orthogonalEdgeStyle;rounded=0;orthogonalLoop=1;jettySize=auto;html=1;entryX=0.5;entryY=0;entryDx=0;entryDy=0;" parent="K1-UY6_NgtcS3bYRakbM-53" source="K1-UY6_NgtcS3bYRakbM-18" target="K1-UY6_NgtcS3bYRakbM-20" edge="1">
          <mxGeometry relative="1" as="geometry" />
        </mxCell>
        <mxCell id="K1-UY6_NgtcS3bYRakbM-23" style="edgeStyle=orthogonalEdgeStyle;rounded=0;orthogonalLoop=1;jettySize=auto;html=1;entryX=0;entryY=0.5;entryDx=0;entryDy=0;" parent="K1-UY6_NgtcS3bYRakbM-53" source="K1-UY6_NgtcS3bYRakbM-18" target="K1-UY6_NgtcS3bYRakbM-22" edge="1">
          <mxGeometry relative="1" as="geometry" />
        </mxCell>
        <mxCell id="K1-UY6_NgtcS3bYRakbM-18" value="현재 위치의 아이템이&amp;nbsp;&lt;div&gt;찾던 아이템인가?&lt;/div&gt;" style="rhombus;whiteSpace=wrap;html=1;" parent="K1-UY6_NgtcS3bYRakbM-53" vertex="1">
          <mxGeometry x="20.629999999999995" y="130" width="137.5" height="80" as="geometry" />
        </mxCell>
        <mxCell id="K1-UY6_NgtcS3bYRakbM-20" value="현재 위치 반환" style="rounded=0;whiteSpace=wrap;html=1;" parent="K1-UY6_NgtcS3bYRakbM-53" vertex="1">
          <mxGeometry x="39.379999999999995" y="240" width="100" height="40" as="geometry" />
        </mxCell>
        <mxCell id="K1-UY6_NgtcS3bYRakbM-24" style="edgeStyle=orthogonalEdgeStyle;rounded=0;orthogonalLoop=1;jettySize=auto;html=1;entryX=1;entryY=0;entryDx=0;entryDy=0;" parent="K1-UY6_NgtcS3bYRakbM-53" source="K1-UY6_NgtcS3bYRakbM-22" target="K1-UY6_NgtcS3bYRakbM-18" edge="1">
          <mxGeometry relative="1" as="geometry">
            <Array as="points">
              <mxPoint x="249.38" y="110" />
              <mxPoint x="123.38" y="110" />
              <mxPoint x="123.38" y="150" />
            </Array>
          </mxGeometry>
        </mxCell>
        <mxCell id="K1-UY6_NgtcS3bYRakbM-22" value="다음 위치로" style="rounded=0;whiteSpace=wrap;html=1;" parent="K1-UY6_NgtcS3bYRakbM-53" vertex="1">
          <mxGeometry x="189.38" y="150" width="100" height="40" as="geometry" />
        </mxCell>
        <mxCell id="K1-UY6_NgtcS3bYRakbM-44" value="yes" style="text;html=1;align=center;verticalAlign=middle;whiteSpace=wrap;rounded=0;" parent="K1-UY6_NgtcS3bYRakbM-53" vertex="1">
          <mxGeometry x="20.629999999999995" y="205" width="60" height="30" as="geometry" />
        </mxCell>
        <mxCell id="K1-UY6_NgtcS3bYRakbM-45" value="no" style="text;html=1;align=center;verticalAlign=middle;whiteSpace=wrap;rounded=0;" parent="K1-UY6_NgtcS3bYRakbM-53" vertex="1">
          <mxGeometry x="139.38" y="145" width="60" height="30" as="geometry" />
        </mxCell>
        <mxCell id="K1-UY6_NgtcS3bYRakbM-54" value="삭제" style="swimlane;whiteSpace=wrap;html=1;" parent="WIyWlLk6GJQsqaUBKTNV-1" vertex="1">
          <mxGeometry x="629.25" y="-30" width="490.75" height="300" as="geometry" />
        </mxCell>
        <mxCell id="K1-UY6_NgtcS3bYRakbM-27" style="edgeStyle=orthogonalEdgeStyle;rounded=0;orthogonalLoop=1;jettySize=auto;html=1;entryX=0.5;entryY=0;entryDx=0;entryDy=0;" parent="K1-UY6_NgtcS3bYRakbM-54" source="K1-UY6_NgtcS3bYRakbM-25" target="K1-UY6_NgtcS3bYRakbM-26" edge="1">
          <mxGeometry relative="1" as="geometry" />
        </mxCell>
        <mxCell id="K1-UY6_NgtcS3bYRakbM-25" value="&lt;div&gt;아이템 삭제 시도&lt;/div&gt;" style="rounded=0;whiteSpace=wrap;html=1;" parent="K1-UY6_NgtcS3bYRakbM-54" vertex="1">
          <mxGeometry x="34.75" y="40" width="100" height="40" as="geometry" />
        </mxCell>
        <mxCell id="K1-UY6_NgtcS3bYRakbM-29" style="edgeStyle=orthogonalEdgeStyle;rounded=0;orthogonalLoop=1;jettySize=auto;html=1;entryX=0.5;entryY=0;entryDx=0;entryDy=0;" parent="K1-UY6_NgtcS3bYRakbM-54" source="K1-UY6_NgtcS3bYRakbM-26" target="K1-UY6_NgtcS3bYRakbM-28" edge="1">
          <mxGeometry relative="1" as="geometry" />
        </mxCell>
        <mxCell id="K1-UY6_NgtcS3bYRakbM-32" style="edgeStyle=orthogonalEdgeStyle;rounded=0;orthogonalLoop=1;jettySize=auto;html=1;entryX=0;entryY=0.5;entryDx=0;entryDy=0;" parent="K1-UY6_NgtcS3bYRakbM-54" source="K1-UY6_NgtcS3bYRakbM-26" edge="1">
          <mxGeometry relative="1" as="geometry">
            <mxPoint x="191.75" y="165.0000000000001" as="targetPoint" />
          </mxGeometry>
        </mxCell>
        <mxCell id="K1-UY6_NgtcS3bYRakbM-26" value="삭제하려는 위치가&lt;div&gt;배열의 총 아이템 수를 초과하는가?&lt;/div&gt;" style="rhombus;whiteSpace=wrap;html=1;" parent="K1-UY6_NgtcS3bYRakbM-54" vertex="1">
          <mxGeometry x="16" y="125" width="137.5" height="80" as="geometry" />
        </mxCell>
        <mxCell id="K1-UY6_NgtcS3bYRakbM-28" value="삭제 실패" style="rounded=0;whiteSpace=wrap;html=1;" parent="K1-UY6_NgtcS3bYRakbM-54" vertex="1">
          <mxGeometry x="34.75" y="240" width="100" height="40" as="geometry" />
        </mxCell>
        <mxCell id="K1-UY6_NgtcS3bYRakbM-50" style="edgeStyle=orthogonalEdgeStyle;rounded=0;orthogonalLoop=1;jettySize=auto;html=1;entryX=0;entryY=1;entryDx=0;entryDy=0;" parent="K1-UY6_NgtcS3bYRakbM-54" source="K1-UY6_NgtcS3bYRakbM-33" target="K1-UY6_NgtcS3bYRakbM-37" edge="1">
          <mxGeometry relative="1" as="geometry">
            <Array as="points">
              <mxPoint x="174.75" y="260" />
              <mxPoint x="174.75" y="185" />
            </Array>
          </mxGeometry>
        </mxCell>
        <mxCell id="K1-UY6_NgtcS3bYRakbM-33" value="다음위치의 아이템을&lt;div&gt;현재 위치에 대입&lt;/div&gt;" style="rounded=0;whiteSpace=wrap;html=1;" parent="K1-UY6_NgtcS3bYRakbM-54" vertex="1">
          <mxGeometry x="194" y="240" width="133" height="40" as="geometry" />
        </mxCell>
        <mxCell id="K1-UY6_NgtcS3bYRakbM-43" style="edgeStyle=orthogonalEdgeStyle;rounded=0;orthogonalLoop=1;jettySize=auto;html=1;entryX=0.5;entryY=0;entryDx=0;entryDy=0;" parent="K1-UY6_NgtcS3bYRakbM-54" source="K1-UY6_NgtcS3bYRakbM-37" target="K1-UY6_NgtcS3bYRakbM-38" edge="1">
          <mxGeometry relative="1" as="geometry">
            <Array as="points">
              <mxPoint x="424.75" y="165" />
            </Array>
          </mxGeometry>
        </mxCell>
        <mxCell id="K1-UY6_NgtcS3bYRakbM-48" style="edgeStyle=orthogonalEdgeStyle;rounded=0;orthogonalLoop=1;jettySize=auto;html=1;entryX=0.5;entryY=0;entryDx=0;entryDy=0;" parent="K1-UY6_NgtcS3bYRakbM-54" source="K1-UY6_NgtcS3bYRakbM-37" target="K1-UY6_NgtcS3bYRakbM-33" edge="1">
          <mxGeometry relative="1" as="geometry" />
        </mxCell>
        <mxCell id="K1-UY6_NgtcS3bYRakbM-37" value="다음 위치가&lt;div&gt;존재하는가?&lt;/div&gt;" style="rhombus;whiteSpace=wrap;html=1;" parent="K1-UY6_NgtcS3bYRakbM-54" vertex="1">
          <mxGeometry x="191.75" y="125" width="137.5" height="80" as="geometry" />
        </mxCell>
        <mxCell id="K1-UY6_NgtcS3bYRakbM-38" value="삭제 성공" style="rounded=0;whiteSpace=wrap;html=1;" parent="K1-UY6_NgtcS3bYRakbM-54" vertex="1">
          <mxGeometry x="374.75" y="145" width="100" height="40" as="geometry" />
        </mxCell>
        <mxCell id="K1-UY6_NgtcS3bYRakbM-46" value="yes" style="text;html=1;align=center;verticalAlign=middle;whiteSpace=wrap;rounded=0;" parent="K1-UY6_NgtcS3bYRakbM-54" vertex="1">
          <mxGeometry x="16" y="210" width="60" height="30" as="geometry" />
        </mxCell>
        <mxCell id="K1-UY6_NgtcS3bYRakbM-47" value="no" style="text;html=1;align=center;verticalAlign=middle;whiteSpace=wrap;rounded=0;" parent="K1-UY6_NgtcS3bYRakbM-54" vertex="1">
          <mxGeometry x="144.75" y="140" width="60" height="30" as="geometry" />
        </mxCell>
        <mxCell id="K1-UY6_NgtcS3bYRakbM-49" value="yes" style="text;html=1;align=center;verticalAlign=middle;whiteSpace=wrap;rounded=0;" parent="K1-UY6_NgtcS3bYRakbM-54" vertex="1">
          <mxGeometry x="269.25" y="210" width="60" height="30" as="geometry" />
        </mxCell>
        <mxCell id="K1-UY6_NgtcS3bYRakbM-51" value="no" style="text;html=1;align=center;verticalAlign=middle;whiteSpace=wrap;rounded=0;" parent="K1-UY6_NgtcS3bYRakbM-54" vertex="1">
          <mxGeometry x="314.75" y="140" width="60" height="30" as="geometry" />
        </mxCell>
        <mxCell id="K1-UY6_NgtcS3bYRakbM-55" value="동적배열" style="rounded=0;whiteSpace=wrap;html=1;" parent="WIyWlLk6GJQsqaUBKTNV-1" vertex="1">
          <mxGeometry y="-70" width="120" height="30" as="geometry" />
        </mxCell>
        <mxCell id="K1-UY6_NgtcS3bYRakbM-56" value="연결리스트" style="rounded=0;whiteSpace=wrap;html=1;" parent="WIyWlLk6GJQsqaUBKTNV-1" vertex="1">
          <mxGeometry y="300" width="120" height="30" as="geometry" />
        </mxCell>
        <mxCell id="K1-UY6_NgtcS3bYRakbM-58" value="추가" style="swimlane;whiteSpace=wrap;html=1;" parent="WIyWlLk6GJQsqaUBKTNV-1" vertex="1">
          <mxGeometry x="8" y="646" width="360" height="510" as="geometry" />
        </mxCell>
        <mxCell id="K1-UY6_NgtcS3bYRakbM-83" style="edgeStyle=orthogonalEdgeStyle;rounded=0;orthogonalLoop=1;jettySize=auto;html=1;" parent="K1-UY6_NgtcS3bYRakbM-58" source="K1-UY6_NgtcS3bYRakbM-60" target="K1-UY6_NgtcS3bYRakbM-71" edge="1">
          <mxGeometry relative="1" as="geometry" />
        </mxCell>
        <mxCell id="K1-UY6_NgtcS3bYRakbM-60" value="&lt;span style=&quot;background-color: initial;&quot;&gt;특정 아이템 앞에&lt;/span&gt;&lt;div&gt;&lt;span style=&quot;background-color: initial;&quot;&gt;새 아이템 추가 시도&lt;/span&gt;&lt;/div&gt;" style="rounded=0;whiteSpace=wrap;html=1;" parent="K1-UY6_NgtcS3bYRakbM-58" vertex="1">
          <mxGeometry x="26.880000000000003" y="40" width="122.5" height="40" as="geometry" />
        </mxCell>
        <mxCell id="K1-UY6_NgtcS3bYRakbM-84" style="edgeStyle=orthogonalEdgeStyle;rounded=0;orthogonalLoop=1;jettySize=auto;html=1;" parent="K1-UY6_NgtcS3bYRakbM-58" source="K1-UY6_NgtcS3bYRakbM-71" target="K1-UY6_NgtcS3bYRakbM-63" edge="1">
          <mxGeometry relative="1" as="geometry" />
        </mxCell>
        <mxCell id="K1-UY6_NgtcS3bYRakbM-71" value="특정아이템의 앞 아이템을 새 아이템의 앞 아이템으로,&amp;nbsp;&lt;div&gt;특정아이템을 새 아이템의 뒤 아이템으로 설정&lt;/div&gt;" style="rounded=0;whiteSpace=wrap;html=1;" parent="K1-UY6_NgtcS3bYRakbM-58" vertex="1">
          <mxGeometry x="7.51" y="120" width="161.25" height="100" as="geometry" />
        </mxCell>
        <mxCell id="K1-UY6_NgtcS3bYRakbM-79" value="새 아이템을&lt;div&gt;가장 앞 아이템으로&lt;/div&gt;&lt;div&gt;기억&lt;/div&gt;" style="rounded=0;whiteSpace=wrap;html=1;" parent="K1-UY6_NgtcS3bYRakbM-58" vertex="1">
          <mxGeometry x="26.88" y="350" width="120.62" height="50" as="geometry" />
        </mxCell>
        <mxCell id="K1-UY6_NgtcS3bYRakbM-85" style="edgeStyle=orthogonalEdgeStyle;rounded=0;orthogonalLoop=1;jettySize=auto;html=1;entryX=0.5;entryY=0;entryDx=0;entryDy=0;" parent="K1-UY6_NgtcS3bYRakbM-58" source="K1-UY6_NgtcS3bYRakbM-63" target="K1-UY6_NgtcS3bYRakbM-79" edge="1">
          <mxGeometry relative="1" as="geometry" />
        </mxCell>
        <mxCell id="K1-UY6_NgtcS3bYRakbM-63" value="새 아이템 앞에 아이템이 없나?" style="rhombus;whiteSpace=wrap;html=1;" parent="K1-UY6_NgtcS3bYRakbM-58" vertex="1">
          <mxGeometry x="30.629999999999995" y="250" width="115" height="70" as="geometry" />
        </mxCell>
        <mxCell id="K1-UY6_NgtcS3bYRakbM-86" style="edgeStyle=orthogonalEdgeStyle;rounded=0;orthogonalLoop=1;jettySize=auto;html=1;" parent="K1-UY6_NgtcS3bYRakbM-58" source="K1-UY6_NgtcS3bYRakbM-87" target="K1-UY6_NgtcS3bYRakbM-89" edge="1">
          <mxGeometry relative="1" as="geometry" />
        </mxCell>
        <mxCell id="K1-UY6_NgtcS3bYRakbM-87" value="&lt;span style=&quot;background-color: initial;&quot;&gt;특정 아이템 뒤에&lt;/span&gt;&lt;div&gt;&lt;span style=&quot;background-color: initial;&quot;&gt;새 아이템 추가 시도&lt;/span&gt;&lt;/div&gt;" style="rounded=0;whiteSpace=wrap;html=1;" parent="K1-UY6_NgtcS3bYRakbM-58" vertex="1">
          <mxGeometry x="209.37" y="40" width="122.5" height="40" as="geometry" />
        </mxCell>
        <mxCell id="K1-UY6_NgtcS3bYRakbM-88" style="edgeStyle=orthogonalEdgeStyle;rounded=0;orthogonalLoop=1;jettySize=auto;html=1;" parent="K1-UY6_NgtcS3bYRakbM-58" source="K1-UY6_NgtcS3bYRakbM-89" target="K1-UY6_NgtcS3bYRakbM-92" edge="1">
          <mxGeometry relative="1" as="geometry" />
        </mxCell>
        <mxCell id="K1-UY6_NgtcS3bYRakbM-89" value="특정아이템의 뒤 아이템을 새 아이템의 뒤 아이템으로,&amp;nbsp;&lt;div&gt;특정아이템을 새 아이템의 앞 아이템으로 설정&lt;/div&gt;" style="rounded=0;whiteSpace=wrap;html=1;" parent="K1-UY6_NgtcS3bYRakbM-58" vertex="1">
          <mxGeometry x="190" y="120" width="161.25" height="100" as="geometry" />
        </mxCell>
        <mxCell id="K1-UY6_NgtcS3bYRakbM-90" value="새 아이템을&lt;div&gt;가장 뒤 아이템으로 기억&lt;/div&gt;" style="rounded=0;whiteSpace=wrap;html=1;" parent="K1-UY6_NgtcS3bYRakbM-58" vertex="1">
          <mxGeometry x="211.87" y="350" width="118.13" height="50" as="geometry" />
        </mxCell>
        <mxCell id="K1-UY6_NgtcS3bYRakbM-91" style="edgeStyle=orthogonalEdgeStyle;rounded=0;orthogonalLoop=1;jettySize=auto;html=1;entryX=0.5;entryY=0;entryDx=0;entryDy=0;" parent="K1-UY6_NgtcS3bYRakbM-58" source="K1-UY6_NgtcS3bYRakbM-92" target="K1-UY6_NgtcS3bYRakbM-90" edge="1">
          <mxGeometry relative="1" as="geometry" />
        </mxCell>
        <mxCell id="K1-UY6_NgtcS3bYRakbM-92" value="새 아이템 뒤에 아이템이 없나?" style="rhombus;whiteSpace=wrap;html=1;" parent="K1-UY6_NgtcS3bYRakbM-58" vertex="1">
          <mxGeometry x="213.12" y="250" width="115" height="70" as="geometry" />
        </mxCell>
        <mxCell id="K1-UY6_NgtcS3bYRakbM-93" value="탐색" style="swimlane;whiteSpace=wrap;html=1;" parent="WIyWlLk6GJQsqaUBKTNV-1" vertex="1">
          <mxGeometry x="378" y="646" width="290" height="510" as="geometry" />
        </mxCell>
        <mxCell id="K1-UY6_NgtcS3bYRakbM-108" style="edgeStyle=orthogonalEdgeStyle;rounded=0;orthogonalLoop=1;jettySize=auto;html=1;entryX=0.5;entryY=0;entryDx=0;entryDy=0;" parent="K1-UY6_NgtcS3bYRakbM-93" source="K1-UY6_NgtcS3bYRakbM-109" target="K1-UY6_NgtcS3bYRakbM-112" edge="1">
          <mxGeometry relative="1" as="geometry" />
        </mxCell>
        <mxCell id="K1-UY6_NgtcS3bYRakbM-109" value="&lt;div&gt;아이템 찾기 시도&lt;/div&gt;" style="rounded=0;whiteSpace=wrap;html=1;" parent="K1-UY6_NgtcS3bYRakbM-93" vertex="1">
          <mxGeometry x="28.75" y="40" width="100" height="40" as="geometry" />
        </mxCell>
        <mxCell id="K1-UY6_NgtcS3bYRakbM-110" style="edgeStyle=orthogonalEdgeStyle;rounded=0;orthogonalLoop=1;jettySize=auto;html=1;entryX=0.5;entryY=0;entryDx=0;entryDy=0;" parent="K1-UY6_NgtcS3bYRakbM-93" source="K1-UY6_NgtcS3bYRakbM-112" target="K1-UY6_NgtcS3bYRakbM-113" edge="1">
          <mxGeometry relative="1" as="geometry" />
        </mxCell>
        <mxCell id="K1-UY6_NgtcS3bYRakbM-111" style="edgeStyle=orthogonalEdgeStyle;rounded=0;orthogonalLoop=1;jettySize=auto;html=1;entryX=0;entryY=0.5;entryDx=0;entryDy=0;" parent="K1-UY6_NgtcS3bYRakbM-93" source="K1-UY6_NgtcS3bYRakbM-112" target="K1-UY6_NgtcS3bYRakbM-115" edge="1">
          <mxGeometry relative="1" as="geometry" />
        </mxCell>
        <mxCell id="K1-UY6_NgtcS3bYRakbM-112" value="현재 위치의 아이템이&amp;nbsp;&lt;div&gt;찾던 아이템인가?&lt;/div&gt;" style="rhombus;whiteSpace=wrap;html=1;" parent="K1-UY6_NgtcS3bYRakbM-93" vertex="1">
          <mxGeometry x="10" y="130" width="137.5" height="80" as="geometry" />
        </mxCell>
        <mxCell id="K1-UY6_NgtcS3bYRakbM-113" value="현재 위치 반환" style="rounded=0;whiteSpace=wrap;html=1;" parent="K1-UY6_NgtcS3bYRakbM-93" vertex="1">
          <mxGeometry x="28.75" y="240" width="100" height="40" as="geometry" />
        </mxCell>
        <mxCell id="K1-UY6_NgtcS3bYRakbM-114" style="edgeStyle=orthogonalEdgeStyle;rounded=0;orthogonalLoop=1;jettySize=auto;html=1;entryX=1;entryY=0;entryDx=0;entryDy=0;" parent="K1-UY6_NgtcS3bYRakbM-93" source="K1-UY6_NgtcS3bYRakbM-115" target="K1-UY6_NgtcS3bYRakbM-112" edge="1">
          <mxGeometry relative="1" as="geometry">
            <Array as="points">
              <mxPoint x="238.75" y="110" />
              <mxPoint x="112.75" y="110" />
              <mxPoint x="112.75" y="150" />
            </Array>
          </mxGeometry>
        </mxCell>
        <mxCell id="K1-UY6_NgtcS3bYRakbM-115" value="다음 위치로" style="rounded=0;whiteSpace=wrap;html=1;" parent="K1-UY6_NgtcS3bYRakbM-93" vertex="1">
          <mxGeometry x="178.75" y="150" width="100" height="40" as="geometry" />
        </mxCell>
        <mxCell id="K1-UY6_NgtcS3bYRakbM-116" value="yes" style="text;html=1;align=center;verticalAlign=middle;whiteSpace=wrap;rounded=0;" parent="K1-UY6_NgtcS3bYRakbM-93" vertex="1">
          <mxGeometry x="10" y="205" width="60" height="30" as="geometry" />
        </mxCell>
        <mxCell id="K1-UY6_NgtcS3bYRakbM-117" value="no" style="text;html=1;align=center;verticalAlign=middle;whiteSpace=wrap;rounded=0;" parent="K1-UY6_NgtcS3bYRakbM-93" vertex="1">
          <mxGeometry x="128.75" y="145" width="60" height="30" as="geometry" />
        </mxCell>
        <mxCell id="K1-UY6_NgtcS3bYRakbM-133" value="삭제" style="swimlane;whiteSpace=wrap;html=1;" parent="WIyWlLk6GJQsqaUBKTNV-1" vertex="1">
          <mxGeometry x="678" y="646" width="420" height="510" as="geometry" />
        </mxCell>
        <mxCell id="K1-UY6_NgtcS3bYRakbM-149" style="edgeStyle=orthogonalEdgeStyle;rounded=0;orthogonalLoop=1;jettySize=auto;html=1;" parent="K1-UY6_NgtcS3bYRakbM-133" source="K1-UY6_NgtcS3bYRakbM-135" target="K1-UY6_NgtcS3bYRakbM-144" edge="1">
          <mxGeometry relative="1" as="geometry">
            <Array as="points">
              <mxPoint x="79" y="90" />
              <mxPoint x="185" y="90" />
            </Array>
          </mxGeometry>
        </mxCell>
        <mxCell id="K1-UY6_NgtcS3bYRakbM-135" value="&lt;div&gt;아이템 삭제 시도&lt;/div&gt;" style="rounded=0;whiteSpace=wrap;html=1;" parent="K1-UY6_NgtcS3bYRakbM-133" vertex="1">
          <mxGeometry x="28.75" y="40" width="100" height="40" as="geometry" />
        </mxCell>
        <mxCell id="K1-UY6_NgtcS3bYRakbM-161" style="edgeStyle=orthogonalEdgeStyle;rounded=0;orthogonalLoop=1;jettySize=auto;html=1;entryX=0.5;entryY=0;entryDx=0;entryDy=0;" parent="K1-UY6_NgtcS3bYRakbM-133" source="K1-UY6_NgtcS3bYRakbM-144" target="K1-UY6_NgtcS3bYRakbM-145" edge="1">
          <mxGeometry relative="1" as="geometry" />
        </mxCell>
        <mxCell id="K1-UY6_NgtcS3bYRakbM-162" style="edgeStyle=orthogonalEdgeStyle;rounded=0;orthogonalLoop=1;jettySize=auto;html=1;" parent="K1-UY6_NgtcS3bYRakbM-133" source="K1-UY6_NgtcS3bYRakbM-144" target="K1-UY6_NgtcS3bYRakbM-157" edge="1">
          <mxGeometry relative="1" as="geometry" />
        </mxCell>
        <mxCell id="K1-UY6_NgtcS3bYRakbM-144" value="삭제할 아이템의 앞 아이템을&lt;div&gt;삭제할 아이템의 뒤 아이템의 앞 아이템으로,&amp;nbsp;&lt;/div&gt;&lt;div&gt;&lt;br&gt;&lt;/div&gt;&lt;div&gt;삭제할 아이템의 뒤 아이템을&lt;/div&gt;&lt;div&gt;삭제할 아이템의 앞 아이템의 뒤 아이템으로&lt;/div&gt;" style="rounded=0;whiteSpace=wrap;html=1;" parent="K1-UY6_NgtcS3bYRakbM-133" vertex="1">
          <mxGeometry x="50" y="110" width="270" height="100" as="geometry" />
        </mxCell>
        <mxCell id="K1-UY6_NgtcS3bYRakbM-154" style="edgeStyle=orthogonalEdgeStyle;rounded=0;orthogonalLoop=1;jettySize=auto;html=1;entryX=0.5;entryY=0;entryDx=0;entryDy=0;" parent="K1-UY6_NgtcS3bYRakbM-133" source="K1-UY6_NgtcS3bYRakbM-145" target="K1-UY6_NgtcS3bYRakbM-148" edge="1">
          <mxGeometry relative="1" as="geometry" />
        </mxCell>
        <mxCell id="K1-UY6_NgtcS3bYRakbM-145" value="삭제할 아이템의 앞 아이템이 없나?" style="rhombus;whiteSpace=wrap;html=1;" parent="K1-UY6_NgtcS3bYRakbM-133" vertex="1">
          <mxGeometry x="41.870000000000005" y="240" width="137.5" height="80" as="geometry" />
        </mxCell>
        <mxCell id="K1-UY6_NgtcS3bYRakbM-155" style="edgeStyle=orthogonalEdgeStyle;rounded=0;orthogonalLoop=1;jettySize=auto;html=1;entryX=0.5;entryY=0;entryDx=0;entryDy=0;" parent="K1-UY6_NgtcS3bYRakbM-133" source="K1-UY6_NgtcS3bYRakbM-148" target="K1-UY6_NgtcS3bYRakbM-151" edge="1">
          <mxGeometry relative="1" as="geometry" />
        </mxCell>
        <mxCell id="K1-UY6_NgtcS3bYRakbM-148" value="삭제할 아이템의 뒤 아이템이 있나?" style="rhombus;whiteSpace=wrap;html=1;" parent="K1-UY6_NgtcS3bYRakbM-133" vertex="1">
          <mxGeometry x="41.870000000000005" y="340" width="137.5" height="80" as="geometry" />
        </mxCell>
        <mxCell id="K1-UY6_NgtcS3bYRakbM-151" value="삭제할 아이템의 뒤 아이템을&amp;nbsp;&lt;div&gt;가장 앞 아이템으로 기억&lt;/div&gt;" style="rounded=0;whiteSpace=wrap;html=1;" parent="K1-UY6_NgtcS3bYRakbM-133" vertex="1">
          <mxGeometry x="20.000000000000004" y="450" width="181.25" height="40" as="geometry" />
        </mxCell>
        <mxCell id="K1-UY6_NgtcS3bYRakbM-156" style="edgeStyle=orthogonalEdgeStyle;rounded=0;orthogonalLoop=1;jettySize=auto;html=1;entryX=0.5;entryY=0;entryDx=0;entryDy=0;" parent="K1-UY6_NgtcS3bYRakbM-133" source="K1-UY6_NgtcS3bYRakbM-157" target="K1-UY6_NgtcS3bYRakbM-159" edge="1">
          <mxGeometry relative="1" as="geometry" />
        </mxCell>
        <mxCell id="K1-UY6_NgtcS3bYRakbM-157" value="삭제할 아이템의 뒤 아이템이 없나?" style="rhombus;whiteSpace=wrap;html=1;" parent="K1-UY6_NgtcS3bYRakbM-133" vertex="1">
          <mxGeometry x="241.87" y="240" width="137.5" height="80" as="geometry" />
        </mxCell>
        <mxCell id="K1-UY6_NgtcS3bYRakbM-158" style="edgeStyle=orthogonalEdgeStyle;rounded=0;orthogonalLoop=1;jettySize=auto;html=1;entryX=0.5;entryY=0;entryDx=0;entryDy=0;" parent="K1-UY6_NgtcS3bYRakbM-133" source="K1-UY6_NgtcS3bYRakbM-159" target="K1-UY6_NgtcS3bYRakbM-160" edge="1">
          <mxGeometry relative="1" as="geometry" />
        </mxCell>
        <mxCell id="K1-UY6_NgtcS3bYRakbM-159" value="삭제할 아이템의 앞 아이템이 있나?" style="rhombus;whiteSpace=wrap;html=1;" parent="K1-UY6_NgtcS3bYRakbM-133" vertex="1">
          <mxGeometry x="241.87" y="340" width="137.5" height="80" as="geometry" />
        </mxCell>
        <mxCell id="K1-UY6_NgtcS3bYRakbM-160" value="삭제할 아이템의 앞 아이템을&amp;nbsp;&lt;div&gt;가장 뒤 아이템으로 기억&lt;/div&gt;" style="rounded=0;whiteSpace=wrap;html=1;" parent="K1-UY6_NgtcS3bYRakbM-133" vertex="1">
          <mxGeometry x="220" y="450" width="181.25" height="40" as="geometry" />
        </mxCell>
        <mxCell id="bD7XFXdZObLop9luvsxW-0" value="시간복잡도" style="rounded=0;whiteSpace=wrap;html=1;" parent="WIyWlLk6GJQsqaUBKTNV-1" vertex="1">
          <mxGeometry x="20" y="-940" width="120" height="60" as="geometry" />
        </mxCell>
        <mxCell id="bD7XFXdZObLop9luvsxW-1" value="연산을 수행할때 입력갯수 N 개에 대하여&amp;nbsp;&lt;div&gt;걸리는 시간을 수식으로 나타낸것&lt;/div&gt;&lt;div&gt;(입력 갯수에 따른 CPU 연산 부하)&lt;/div&gt;&lt;div&gt;* 절대적인 성능지표가 아니다.. ! (시간복잡도가 나빠도 더 좋은 성능일 수 있다)&lt;/div&gt;&lt;div&gt;일반적인 성능 보조지표로서 사용한다.&lt;/div&gt;" style="text;html=1;align=left;verticalAlign=middle;whiteSpace=wrap;rounded=0;" parent="WIyWlLk6GJQsqaUBKTNV-1" vertex="1">
          <mxGeometry x="145" y="-943" width="475" height="77" as="geometry" />
        </mxCell>
        <mxCell id="bD7XFXdZObLop9luvsxW-2" value="배열의 특징: 데이터가 연속적으로 나열되어있음.&lt;div&gt;그래서 인덱스접근이 가능하다.&amp;nbsp;&lt;/div&gt;" style="text;html=1;align=left;verticalAlign=top;whiteSpace=wrap;rounded=0;" parent="WIyWlLk6GJQsqaUBKTNV-1" vertex="1">
          <mxGeometry x="20" y="-1020" width="290" height="60" as="geometry" />
        </mxCell>
        <mxCell id="bD7XFXdZObLop9luvsxW-3" value="int[] arr = {2,4 3}&lt;div&gt;arr[1]&lt;/div&gt;&lt;div&gt;arr 객체의 가장 앞 주소에서부터 int 타입크기 * 1개 뒤에있는 주소로부터 int 타입크기만큼의 데이터를 읽겠다&lt;/div&gt;" style="text;html=1;align=center;verticalAlign=middle;whiteSpace=wrap;rounded=0;" parent="WIyWlLk6GJQsqaUBKTNV-1" vertex="1">
          <mxGeometry x="334" y="-1030" width="326" height="70" as="geometry" />
        </mxCell>
        <mxCell id="bD7XFXdZObLop9luvsxW-4" value="" style="rounded=0;whiteSpace=wrap;html=1;" parent="WIyWlLk6GJQsqaUBKTNV-1" vertex="1">
          <mxGeometry x="370" y="-1220" width="120" height="60" as="geometry" />
        </mxCell>
        <mxCell id="bD7XFXdZObLop9luvsxW-5" value="" style="rounded=0;whiteSpace=wrap;html=1;" parent="WIyWlLk6GJQsqaUBKTNV-1" vertex="1">
          <mxGeometry x="370" y="-1150" width="120" height="80" as="geometry" />
        </mxCell>
        <mxCell id="bD7XFXdZObLop9luvsxW-6" value="힙" style="text;html=1;align=center;verticalAlign=middle;whiteSpace=wrap;rounded=0;" parent="WIyWlLk6GJQsqaUBKTNV-1" vertex="1">
          <mxGeometry x="300" y="-1220" width="60" height="30" as="geometry" />
        </mxCell>
        <mxCell id="bD7XFXdZObLop9luvsxW-7" value="스택" style="text;html=1;align=center;verticalAlign=middle;whiteSpace=wrap;rounded=0;" parent="WIyWlLk6GJQsqaUBKTNV-1" vertex="1">
          <mxGeometry x="300" y="-1120" width="60" height="30" as="geometry" />
        </mxCell>
        <mxCell id="bD7XFXdZObLop9luvsxW-11" value="" style="rounded=0;whiteSpace=wrap;html=1;" parent="WIyWlLk6GJQsqaUBKTNV-1" vertex="1">
          <mxGeometry x="370" y="-1350" width="120" height="60" as="geometry" />
        </mxCell>
        <mxCell id="bD7XFXdZObLop9luvsxW-12" value="코드" style="text;html=1;align=center;verticalAlign=middle;whiteSpace=wrap;rounded=0;" parent="WIyWlLk6GJQsqaUBKTNV-1" vertex="1">
          <mxGeometry x="300" y="-1335" width="60" height="30" as="geometry" />
        </mxCell>
        <mxCell id="bD7XFXdZObLop9luvsxW-13" value="Program.Main() 정의" style="text;html=1;align=center;verticalAlign=middle;whiteSpace=wrap;rounded=0;" parent="WIyWlLk6GJQsqaUBKTNV-1" vertex="1">
          <mxGeometry x="373" y="-1350" width="114" height="50" as="geometry" />
        </mxCell>
        <mxCell id="bD7XFXdZObLop9luvsxW-15" value="" style="shape=image;verticalLabelPosition=bottom;labelBackgroundColor=default;verticalAlign=top;aspect=fixed;imageAspect=0;image=data:image/png,iVBORw0KGgoAAAANSUhEUgAAAXUAAACiCAIAAAAx08q8AAAgAElEQVR4Ae2dh1cT29r/379kQ2ICSJEuvYPSjIIQbEdRLEcRKzYURFGkSe8EBZESBEEU8aAIiiBIiQIJwZmz3vfedc4t722/c9t7rufI+q2ZSSYzSSYkIYFAdhaLTNn1O5PPPM+z98z8F4AfqABUACpgHAX+yzjFwlKhAlABqACAfIEnAVQAKmAsBSBfjKUsLBcqABWAfIHnAFQAKmAsBSBfjKUsLBcqABVYC3yxPu6b84lf+z4wPshiTRyxzbdDSsXxlS+9QuzXRHtdUq9NLgilHzKueBmgvZztJd+97y2IsTJAWfoX4e6cOhYnmI0+ncLWv5Clc3qWDaKUj7g7TSmP/ZmOaUoCVDWFUgbTX7X0uNg+MvjgpLcWTV0LfNn6gCeQ8AWSHZfSNmjRpVVPYrX/eSze4MhjPC0ac8SvSMIv7XTepEVaoySxu9hVj6LtKNrQeX65FXC25T4XIYj4Te3+1eVLWlAVds7wC5scOMvtlIb85sgX6513X3xCEMlQ9R6uBmnwXfryxScvJG9i28Vl/uC9N538jlfxykvzZXOd2y8688XlYqYIbUelZYK95OG1DC0ukGIbiytiyI3aLhjMfuHE1A4jqHS4Xm+4hJVvLZiKOvOtpbZtZ0q3kvaLdjYJYclol5apV6ay3Tq+/LUY/TzVdW0JI0ZfvuA2xbINinD36yK+YGgJvpiKqEZqh758QZuHKgJkbbL0rHojxGwQvfhioI5ZJz54vzy6ABDXsVMg4RmALwbq01LF4PaLdsxYT3wBwDIg7zsxioi60tw0aQT5okmdFdmnM1+Cq0pQaeXA20bpUAphrFiGn3qzUPest3QV+WLhmftiHv083nx8OY4R5MuKnHOGqIS7o3xQii68b0jS4CWp4Qs7MMvv+ruYGjFfIImvHI+4WGi/SR4j25wbVom7tXh8AfNvFX8TQXEKP8fS84LnxVe8ihksQd1MTMELvz172XKr1/70GCUjtRAJ/06Vtbz3ZCADT0wrX54E/2b52icKw4um47DGzMXefe69TYdIMGf3kxiBJObqTbqfzrFLHo4XzGxN2kYGlS0903xJZaqntl2v2eRCy0TvF5NdZmMddy8sb2JnHdbx+OqP2IIu8RecL8X3q27NyKyVDQn1ZfMjZ1OrSlDk3qMzcm3YLieKrg18aJxH2lFUuCCuH+5JOR0kP5RYKveqN+145AX/P3NdNfxC1FUR75JSmzchbkXRdkR6/03zriDlc4q798F7FBX33dksr175m7OlICBrNLYW63VcxdjWc7dsreXSBlRF4tvVnRXv/SNsZGXhyTDrxorvdmEwplrMF4h3FjzZHEyJXdGLUmcKYaEZ3plvN/jfCsyews+Z2di8TjcfpWC8/ca97RElH+MVZzhxova5y5sDAFgZ+8XS7Xhcw+cc0c+16KIA/Vo18+frzXVeGykKe1Vd/LRYOfDYgxMdXf/fd8W/CtCvNTM/nr4Wx6KkYgXlfvvyr+XSrwKsHMVfsTCTTMWNqTzR96dSPE3d/D9z+17zwhmuGK7pPTMoMvvsBrMJo8wXi5DayBr6D14gUcQpteULfk1WPjDTofu2ECcU/XdIr05XvrB47hlTyuelLj9XYH0uoEjML+9xdSZFBoB10CdvjrqRHf0gWkUZftUAdZCI3i+1fHHbdOrNTmVl9OFLxcGELhHuInGD6981jwjCMBZQYrT4KgUfWAS3XTqaelCBBu34graKphsQPLscRhTXjNCMwIv0u1wGvFhua9mO85R6pLYckCtOhwI1DV+gwpdLDcFFs7Q0Fd2udupRxcQXfukYT+lo0iLBVrbHBnD00E9O7MCtPF8Cd/b8g4oDfPlrSXeFHXnCEnwZmj479H91FHAIFv50IklGB8vAuosiZbIQxZJ8sYx6kjmv4I7SXrI2+YLj+U4Risx0XVKcUvJdsm9lvtinjPAFoi1Je9g49ywddjl/2xN8KEopG1gi/nLE9/bLgIPnbBwdsMPOCdl07EWMQBJ3s5BOQm3jL7gho9Z+4dgdH4oTSOLLvvPh7+OwAGA5W4Vn+19tcqJc0pQbr7xOmCqi0H1B5B6LcGzQinf+rOxyb33SL3+OL/gUeeqytR0HAA7bI8UrE+Pazsx8VXVx0Kjhi0WYIKpWEl854LuThyvMYTtfCSzWiS+2ZzsEuB+EjftIXh3blpA6ihsyynypzB99di7z4GY3rH0srwNHn00JUaS2+TjZS3IBBw2T/YKRRTg3mJoabgXYjkfvlUjR9vnXJ7aRuQEALoUvEXRhuCaOupGy7HRBxBdMBu+NYOMcYDkmuqT0Be5zpCTBFzX7RySGasZCDh3jcCyA1UHv7Bm+4FPILpXjTRo7ynXIh5ZqhgN28dkWgOV5J7hMzBeM+G2Vm852WSGVEn7Fa78ELAGw8rVL7NlRJ4lNz+HKbXCi1BWxXwJjO3/MbG2P2BmMWcssZ/fLY3fmFwWzCwl+8r7hfMFwgPz7tlDg62IFODsTev5eh/6a15CKJ7ILfvCnOvSXwr4XUWH2AFjZ7qhIGfmPYOHPp04prgmbq39Xh3658+C2A24csdz388rF6Q3p8mqUv91v9M6iC2MNh5R3yNeV+WJz6OVOgTjmprLlL08v/16CL/Jk5Ddh+FBsE3zPsvnCOuZXKObXDHqHKhm3ZMVaLRA/ewr+OA6n3/MF73xDZTYoa4dwh0ASk55tRT29bC8EFov5Fc/cXJRrYeALUex0yG5/SgZd4y/4cPLc7UxXgA0kifObhGUSPBDjeSt7Dn3Qm6m4qlFqAQAQ49BqB6E186VN9OLbXSRE/Y6+lLaToR+iCpvjbZMoKulhPBHtkt/FC8Tb04vt7agK0hsIlorvEnwpfUL1ZWyOYIaGwhQii9TMl4rXPlFy6wmATec+qBpKcVezKM5Fok/+nOpo94rwhewSubDn6LtFgfh/DkTLtxB8kf4x5dxWss12V2aL0UW5bYIbQchfkpPkWQBwvP25HP05s3g3uckx+3M5+rVydDKep9UPamNS8ziKznZdIktQWlDmC2Dx3K9N4D7nXOzdV0HHM2wdaSEGWf6l+IIHcYZ3VGFBHMWfwfmCYyv+drn8uqPUO+1Xd3hkfeLXfLfZHc+Ce0zxufWYpYJ/cANqZuvBrbJ12RcjHxn4gqevG/D0pBajF18IW8MloUskRJCmV4VYifi4NcVzsfG9XH97VNS0QHNt9OALPQtWqTJfbFPapzTyBbD3ed36iJ8Js7F5/QFHLmy0VQcabeyXzHxqDIkqJW1ZM1/ohWw8NhhPdcTcCrfWYPaLT+wWwn5xONK3o07Cv11Ou8CsWPzFO+NAx28LZr/QfB9VvogmwmkSUFfcI9v/JkB/KeztDvPG7Ze4xnNj/xGg/7yQprBfACsqruv/yaI8oj9cbWrfihk7zB+/8iHd+IIVxeGEXPdKfRFdTkRnReHH9pNQlFWlkS+siPtRSs4tQRnj8IVidzALsdQePMori+ayeK3b6ZFdnC80BwovTy++kBSTNUlXvriVDwlRmS+DmySS/MItWFk0vnADyl8/lIdLqFEYOixkbdBsv9Cz6McXrCIrbni2z6WX2yrmMNDUTYUeiJJHTWTtWGJ8mrBf6GiQ51T5Xg5fgJVd8hvlyG7diF+0wuQh6lsJ+8Wr4oLauIlufAGWIY1XZpRiK1/LX3X7yC+icgXZtgkVSe3f537CcYZ8yW0tYDKJuXH3RnXni7wiwOGEV24pFysu7OQeTXxxdEr9wBeIt18tsHfF4y8AACP5R9bnA0sk/PKnbu5aXdLI5qtZwG2WuKwSa0u8/fRw7wZ+l5oxJsI/UhdLZrBfvF2uTFHdLgCALGysrhA1jcQ2MbKAyhduQuoo2o6Iixsv+OHxl+X4R0vzBbiWDKCa4i/0vlhxeY2R1RJ+VberkuVpIvaL3ZXAYnF88bsoYvyo7mNM3hOPLYRxS+vKCvDFOff7CnSxZnJ2zz48/oLVz+AfabJf7AKqf6hCfr47Towffa0R/5QlpA9C0XqGnZu233Skib4KPv/5xEHlfcQ6Hn+RDtfuUr8bKD//Jdzt0suQExn2Hm7EhcXSIdEjU90UuODaqFoJv2rILyacpWznhrqlT/MFMxEnT5ABV7/M99igibL9QvzeMBLZqfXC5K1mju8GuFyZwIKseZ0ePCJiarMhIN1Pt/guUQ0e5a0b9Aq5EFhCiewSO51vhpRL+HWiCDK+63vNLxsz+BUxYHlrAQAMfAF4eEuy806jowsHC3sndctGMQzGl/aZzngAgPPZjGm0HRHdvIUNLlraBW7NqM8enxNSB5go7WVkllLMGMuizn4BS4wf8T3TB4KOXrCVD9GxHE/45MwqjcVghW9rwdyQin6vCD/l0woAsGL2C4a5ma3Hkqw9o7g2ahpCSrcCfMFjrouVr18Eu1jhcdm7iR0/lHxWF3/RxBcMSXXTswkJez0jSE6R/SAWAmPaf7hOBpIBYLkf3tv7DwH69zPJSimJVbvjbRM6jR8RBj8lYoL7NTuzym2VjCjWfu8c3HtShFcU4zs4DpQLwUxiZb4ATkLXDkUJeBZFGrWD3FgaxXg5ABbeuaGl9CiPQKfhGIpwPsXhVTMRGS921L31CaHOLsB8Ruv9vTFKTRVI4gvbXVzkphPj4L1CGeB8PZje2vjC56F3Puow/8UuuuVDu9w/ojRe5h/J+EJQQLN/hNs7VNdJvkyZBKwtX4D1wYfjKCodqiBDjtS28b3u0EeUcSVVh2MA+4x/sdLRVB6f5mv0j5wvfVLE+6jHS5ELHz9SrGLtVI6/RDapjqbHV41HXrprR87Zwfu3AnzZsPfVbamSX4Ov6uYf8fa/+g8x3qz4j/xS/uF/TirmyKgdCF+sGR+LVPYL8c4TeJkWniFj/9Rjji8rx3dp8+IEc7HFQyHHTnOVoy9YVgu3Sz7XqRFcyq+I5bvp2FNZ+Kb247YbLZujzvvkzqnyBQA3uwPk1Dh9+IK1xPHo5lTFXL4duU+8dJlfR9EkwPUqNuSMe0mUzbJFDje2XjEvrnJ065lbtnZyuJA+IPWcli1TlAHA0i8nKBeb1hVfPRGResfWLgq7SUJ7+0Wt+UC0MPjUG1TOF2DpvO/bJ6P3iMl10k+lz+r3Hi/Nl1ImyBiUL4AdXjLAPH+X5Z/hnTa4oxKPvAhmYwsHgw4lEWPVSkJbet/0zxrB584Rl6jV4AsIcbs2hU3eK/tAaQnWnvisUmqIdwX4AoCVW/rojUl8ch1OhNN5t+I7/qZm/EiT/QKsvx3JWVgULPxf6QwxT0/OLOQfqZdkIV5W0O1ERSBZ3UQ+xdGSzd8drf9GsU1lSZkvKgngBqiAlgoQ9x8tjNzT++5GLSsyerKNRwfiBJ+2JO2kXFit2OH1+CTjlZ9fZ4j+4kHi2klRjL9iCpqlw77dmPtDjmHrUBFx/9HnyY5LzJN3gUr8RYcKYFKogLICtiltkwiKiHoyyYlfyknWwjrhzX0KP55iTcwzA4DlyHdK7o+pU37gw4rYLwbQzD5dXIIu1k5L9u7ftpGIdXB8Nx/vuPjhi4A+BUarymT3Ty9FF8gXrdSEibRWgLO95JUYXdYjGrSuy2gJrTadG1MenCZc3boPwbtCqGPqOF8Uz49SvZPaRJ4vpXbiPx6I+Vo5/Gar2vAKk77W228/nTTy81+Y6obbzV4B7Pl1o09uhyns8LUnCTvUPrElvGCCuBuTuCEzIk3gjM1Mo33WCl+wweaEmhN9/1tETtJDvpSO//Z8aaaT0tANrX/qViw9LnWMDtUlMk2KoeaB8ReqGnAZKmByCvj4+AAAuFyuuzs2AccB/2DzoNzduVxs5EYpga2traMjdmOXq6urldUqUx7yxeTOJ9ggqACpgK2tbWNjo62tbWRkZGFhIQDgJP4BABQWFkZGRqomOHTo0Llz5wAAt27dionR/WmGZN2GWIB8MYSKsAyoAFRAnQKQL+pUgdugAlABQygA+WIIFWEZUAGogDoFIF/UqQK3QQWgAoZQAPLFECrCMqACUAF1CjDzheN3vKL3/ad5BEXR0fod6jLDbVABqABUQIMCTHzhHGwYXSDnJUK+aJAQ7oIKQAUYFGDiy9Fm/EaSvtLDfsw3XzOUCTdDBaACUAFMAQa+bMnvF6PSwbIIqBJUACoAFdBXAQa+RBa+EqOfnl5f4u2y+tYK80EFoALmoADkizkcZdhHqMDqKAD5sjq6w1qhAuaggDq+2ISdvjckRpGxpkNKD6E1B0VgH6ECUAFDKaDEl+Nt0/igNCKd/q78GwdD1QLLgQpABcxRAQa+oJ9n3zSd9aE8vNocxYF9hgpABZalgBJfsLI4znHZXRML0D9alrAwM1QAKsA0/wWOT8NzAyoAFVi2AmrsF6xMyJdlKwsLgApABSBf4DkAFYAKGEsByBdjKQvLhQpABTTxBd5/BM8PqABUYDkKMPAFwPunl6MqzAsVgApgCjDxBT7/BZ4fUAGowHIVYOILAPD5dcvVFuaHCpi7Asx8MXdlYP+hAlCB5SoA+bJcBWF+qABUgEkByBcmZeB2qABUYLkKQL4sV0GYHyoAFWBSgJEvdnZ2THngdqgAVAAqoI0CjHyJjY3VJj9MAxWACkAFmBSAfGFSBm6HCkAFlqsAI1+4XPjeo+WKC/NDBcxcAUa+eHp6moo0Vge9b3/k144H7w63MGabUtpF5BsrURQdro1Uqo1XMiDRnEIpg7mtWjjE3mgbmhJjb/6U9KSbW/eN1t9tde9QFEXmRcPdJUc3G60aIxTMyBcTir8ECqIFEr5AEnP1plFtKsiX5Z1gFh7ZfWKSv5Avy1OTmpvgC/Fk7LmXhdHUfaa9vBb4Ygj7xWpPR1TJWPDuIA2HA+eLqtWiLgdhyWiXVl3+dbnNpfAlgqLSkZYr0fZ6ddDaJ6kyt+ld87Pptt7JBy1Prp7c7cDSqyRtM3GCLz192Dvd1jtdeNFP20w6pLPyiM9JFww+eIpV0dL1rqK8fG/gRr2scJZD+OWWkXkUlQ7X7tKhCaublJEv62x82jZ5mC+YCoF8Md7pZnO8bRJFPj46q18VoQcKXjfjP/U2xf/xorQEK/3K0yIXO7666ul0y9PJVmPx5XLWE4wstL/OR0kellq0Tk0Sm8SH4ygqEiar2Weamxj54uzsbJot1q9VkC/66aZDLtuU9il0YUSg58V1g99pYUVV1f5t3mwAWPbbDuS+wnDTen+nfsbQki13OZPeMtn2uCM1EzNhjGO/pGY0Ck/tj3WysgDAyiH03JWGibbe6dzT+r5XDHeU1gVfTCH+wt39JAaPvPCx/+qsD5ebIeWS6ORvNoQVBOVMxtVJ+HUzO3KErl6yix69BCyIo/grf+LqQjsJV8Y/YodmHOj4oWD2iwBdFKC/VEz/8VJFuj3VDUjoz15YLHp0h2t/bE/X78ukXwXor1WT6KGkzaRh7Vf7+xr0p3OnnawSmlPf/bMaWRQgX+6+eBbqrOeVkSaEfivL5ItKpbYnM4TTbb0vzoao7DLAhs27cl+3PBtMP+AReKHHaHxRbqjrue6W3qmckzbKO7RcX4ovrC05vR8/IzP9RTs5WhZp3GSM9ssa4ktc2diOago4BJK4HIE9ThjT48uxo8O/4GRZpPz/NVuQpCAMwZenY5en6CnFyG5vGT4IvlxukRQuUMtZrOx76EBCaKkzZ1e28Jn6T1ve/k1L5VbZbxy+dLQdMMKAieOx1vvPpmruJNsC4L9CfLF3icnJaZ9qaardoV8EBgBA8KXjDBM85IFgZOLhUZUDtBobGPliQuPTAOCYYLRfMJOkcsg/fhvLks3yyw8tl/Dr3noH0OQ0Gf/o2OGXf7hcVxES5oFxgOsTVPS5GFkUjI0EWcsbjPMFo8/CT9eqspxtLYH9xW+HvwjQL1fveBGJcL5gZKmZ/j7pZCTHAlglDd6eXxTMI7td5eUs9W1Ivli67b7TM4Wi4r47BsKB/f6GumfTDWUZ7kv1Q+f9ITkFj6ce1t0NwYcjjc2Xb4own4j4a6gt3rZJ6wuAasecTrVPosjcYP2ZMLUulk18Ud/asF9Man7dEnwp/84rzEl+MNydLnzgC4Z9AuUb8G+T4QutVfhKxUXxomB6Ooq834vgywz6Dd+FPBW9q36sQRdvlPoT+Qm+lL7o8NtEOkQHD7/9IkB/m+ihWoVRt7iWDBCD0p/nRoVXDDMKwwrKyumYahU27/dS2HWG6cWG2JM1Y62PnyRvlQF9JfnS1jvd3Hhvt4/enWIFXmt7N/MZF1w8UGzyI9WM9osp+EfkCaWZL0rzYnCUmC5f2Dsqjz//Q4mY7vuo8uV1DwkcUgdygeALiRty+2oskHxB5iefFcQsf7iH5Z2a3jTR1t17drvBQ7vEgPRYToo/yWVj80V+TOxdIs6lVr1t7p1uqcl1J6uX79buG/JFO510S7V++JLw3a15WsREFoVZDb4Y0D+ysA04WT8kNoB/xAm7dad9qvXx03Nxrnr+BjWdW9HJteOkt6JmoTbPTVP25e87fKV1qq338RHSG9apSNfzndMoMjdQddhbrX+kU2ErkZjRfvH3l5niK9GKpepYN3zZ0vSXWnSx8s3QtnA8/oJ1nME/Mr79YkC+YP1Yfnx3g/O+mrLuqdaOrpN6ztBb6kQCq86XPakPptqePkrSz8xbKr67ZP9XOgEjX1a6IRrrWz5fbI4MxAkkcXnNzl6OZFBDqc4VGJ/e0fVvAbpY1FXpYmsJgJNj0r3jz/9chaiLvxifL0rdX+7qMvliHZTSUvNkuqW1OdGPaXiEaCLL72rn5Gdk4VN/Kd8AN4xo8I/Y4dnPRJ8R6XRvbtSG5epj7xJw4Mjdl03PphuKLus5grTk+HTg9a6pz8iC6IWJDFAz8sUE4i97fPJpo87k1JXo5D2yg43Pf9Em/mLhXx5OH8Pmr8b8F7v0uRLEVPyj5f5glPIvjy++N3I76fNc5WMubQ0l9LFAh+PCCSKiLH6RQ9+l1CStVjXwxf1Sl+yW14891/SImx9tVZmRPN3cWLVdT7rIx6eZ5+9uvtIta/Ds81uGCbVrpSFjInPhCwBsDq8mNPfDzlo5s1aDLwA4hZbM35nBJ9chX4pHJUcv3kwa+KJm/MjM7Bcd+AJYfuk9HzHCIFMtJxhPbW13aOALYIfn9s3gNb2/L7+maVsuAIDKl6dj9xp7rp1LxOfy6lAGLelS9gtgheW+mMMabCKDS4x8CQsLo/XMDFZWwD9azyri9ov+9x/pJI1Hes8n7BkQA8VROuXTPXEo8Xud6but6dZY3cvVK4c29x+F3H2JPUTE1O0Xvfq/tjNBvizv+C37/mmtqmfZBx8u6HwvQVFk9kWuMS+CbMetySU9H6Qoioh6Mny1ap3xErEcwi/cH5rTdP80yyHkaEmfCEFRZOZ5drDx2qJ9yYz2S3S0yc/d0b6X2qXE+UI49th/1acvwOdLaRRyBZ7/4n6lG3eMUBRdmO67a4jwLkOXgm4/xx0jFEWlE923lx/eZahHq83yaf+YS8j0/BdKmoVxYaqBZlFr1TwNiRj5YgLxXQ3NNsouyJflymr059dhfEHmZ8YHWrJibJfbWo35Mb4gko9j/Y1pEfrNVdFYvG47CXZofn4dlgaT5lVzJs905sYw8sUM7RfdjjlMjSvA5XLd3bFbhBzwDwDA3d2duLnEx8cHimTmCjDyxcx1gd3XUoHIyMjCwkIAwEn8AwAoLCyMjIy0tbVtbGy0tTWulaFlI2Gy1VKAkS9mOH60WscA1gsVWK8KMPLFDOMv6/UYw35BBVZLAciX1VIe1gsVWP8KMPJl/Xcd9hAqABUwsgKMfDGp+6eNLAIsHioAFTCKAox8MaH4iyHef2QU8cym0Lh7o4p5hyg62XJEj65n9MxTC5kS6v2Uaz0qh1lWR4G1wJeVen/j6hyBtVAr5MtaOEqm2EZGvpjQ83cNYb9o8/5GUzw+ptEmnC+arRbLTTt2pbVXd0+19fSd2aq52bglA+0XzSKtj72MfDGp9wcsX2ttnu+9/FrWawka+WLp9M2RnJ76HvnTWyBf1utpoEe/GPliQvEXPbqlkgXyRUUSHTZo4otV+I2X2INse97kZZZktU5D+0UHYdd9UpPmC/5YTPnjoIz//sYlDjbb1z/z7dX3/6j8jD2Arm7+n3mvRuN4Bn/C/RKtkO229PBNG7wy+vdK/P1qddJ/5b/+kLCT+lI0z+1dfxdIfzgUw3FM6U+f+LkWe6HSv7IfCTzIZ0q6FKWKFquHer3ZWyJqvy/AXmnwtWbm9+cyd7PprdDEF7BhW1leZWmcNxdYHb7asmy+WJ14MDqPLIy3nnFmepApvXFwzYQVYOSLKbzfXku+GOr9jZoP06brklLsja70P9FMjC7v/0rM73ym/tOSvUuH23Q3XvxUrNQSdFEwM8+XvX8NAEDw5XfnhL+poD2R89f85kwZPgi+DIvODPxfHbW0z39JOUFrjEa+KGQzCF/kw0wL/XnkO60UVcCltaUAI19M6v32mp/vbaj3N2o+cpvSP94aGNubfNABe3kw2yqy/NToFwH6rys3dXjGkcH4cmHq1uDk/lNHNmEvSWJzw/KTh/8jQH9OzyOf54bzBaPG14pR0a7dXmzAcc6YLUQW6ybHZPFXnC8YMZGf73Q88HezBuzonV0/1aG/3m3OoKqxknzxuND6HtovVPXX8jIjX0wq/rIEXwz0/kZdj6NX/R8F6M/XCxN0zWiM9C5VPwrQL1kVifLCCb58yRUWO5MOkXPuuelFwYxoG5GI4Iv0T2cuRZMOkc1ZURG6WNaZLy8H+15JvlDrhctrXYH1wBdt3h9ggPguOzS8RHRj8t/VNHdjlfhi6RtWMJn5Qakxqnz55/nzzKcowRcSN8wJIV+YtYF7NCnAyJc15B+tCF9Cdj75By1IIQtY6MYXA/lHnryOn9Q1BvJF07kO9628Aox8MUGywRIAABAuSURBVIX4LimHZv9oJfgSIkwXLwoW/pp65yQef8Gapod/ZBi+eDakzS0KPv90ueAsHn/BGsPgH0H7hTyJ4MIqKMDIlzUUf9GGL9q8v1GT/Lz+28iiQPybpG88WACwNifyykRZH39dnfhL4NObyKJA+uOxJC82AJZuu6OLJm+IflEXf1l7fLE6UPdWgiDz71vgALWmM3Jt7DNlvqz0+xs1HbGNZ44N4y9Fo47jYsu6+UeaqtB+HzcpaUhtY1bFP+ImCGrIdy3SFsZuHFLbKY33B8TVDi8Q90G+b9xDRqbVlgM3mrwCjHwxgeczGJIv2ry/UfPBYkXUpAz+DZ9c97Vm9i/XW1oibnwsXBW+AGAZVHpi4K/45LqvNXN/vSF8FHl1Il/N+NEK2C8G5guwOt7yAcEIA+9Q0nxGroW9jHxZC42HbVwhBbQcP9K2NRrtFwBASts0Bhhov2grqOmmY+SLScVfTFc/82jZyvHFyj02rWVEir1I7H1jopV5yLuOewn5so4PrsG6hvNF8XAozU9qYKpVPvFfVo4a74eSQvyqmLeBqSS4fc0owMgX+H6SNXMMjd/QFeTLgnhqpKf86GZL4/cK1mB8BRj5YvyqYQ1QAajAOleAkS/w/bDr/MjD7kEFjK8AI19gfNf44sMaoALrXAFGvkD7ZZ0fedg9qIDxFWDki/GrhjVABaAC61wBRr7A8aN1fuRh96ACxleAkS8w/mJ88WENUIF1rgDkyzo/wNp0zyX12uSCUPoh44ri8b3a5DNKGm5s8qs5ITJXUL6LfKieUSoiC/VO63g3eO+4u85TbizcU4UjQ02nfMmi4IKSAox8UUoHV7VRwKbkHm+8W/53b3OcNplWPY3dxa56FG1H0YZODQ+7W6lmBleV4I1pHqoIWIE6vc+3YK8rmOi47K0zX7g78vs+Iuj829p98EZv9ceKkS8mcP800WIO52Saf29z1Hvsd7ttuDm0Nc0hmKO+N6u9dSX44pLQJWpHZ66rQYFn4vO59pmuXbqe7EvZL1b7y3I+zAo61FSpreIuFzNFaPtMZ/ySGVbUfvHO6p1FkKnHV3SHC9ERbmzZgBhFRN0Z0IhRd2gZ+WIS8Re2r1Nj0zaFRSAzDSKbj5ooYOQS46Axjv1iF93ygYEvwafeaPcbljdTy2/CwFmWdaM9X7RskyGSbS3oFy+LLlgjLHxy+sQo8rE7XZcX1Rii+WuhDFPmi83Gwpro8W7eyH2/3H3WrhhSLBy8N16+7ld72Hz5Atyr3rSjMzcuq1opGF/aJpt5hj7x1idfuKfaphB0pjfLT2fHiC7whuiygXn083jTUdVDQk9pfmuMfFn999tvTvR93c0ba/I556HxRX64A/W8JXqsmzfeFf2mMbBkH4dyoDmX70aO39vMd9p4IydksAMLjoy0hAiOWVHSYMd9U5hjaVEYkeB9e3hPnmuSO71eFntPstfjB6SnFnL/1EZ3ltpzRqP9Qm3w46j+Mo+TPvSK1BZJbsT5Ii2uiCG3yBa4CamjKBm2wKGAJWP5pZzpn2haQNuRhcZ3j/ZHKTqOF4VFXvA/FZ9LHgqRJyBTosoGFNsvprq34uO8EEXbEen94Y7EndiLmRQfLewXMgyEV6eug1h7pMUV8S4ptXkT4lairjfNu4IUPcJqtHQOud1yV5Zg4cF435nTQaqh4qD8fjGKvKuPp2eWN9nS81RC0/e5H/+DvfcS/bXq45/TG8s30946J08KgFPakxkUFffeUm/CWHhmdE0vIOKharOL0zDyZdXfb7/hQn7EeHfUo1Pqj7/s4NrZltRiNg79L/rpVVv5u1JxvnRGvGymJ+sMLdmuuG6xw9y6cPRQy3l+FXuTmuzD4qbdjcAQRv97fdcpVA1imPliY3OnLFK5nI6QQp6iMfIqGb5JcGA/pdDiAulC5f0DWFr8N6zEl9IO4d05hAqItg/N2+WSGoYvXN7Rvk8YWah/nyfTL7gqemAwvqCtoukGhFYX2WW8Ope4h6MPqS3BMCQuLFPCMY4XdLQhQa6Foq3YUtSu5/9Sflcn+rWwI38jPZ1szf5MxzSKznZfVVuaZ9kg/lAK5FNHqtrs63cjI19WPf6C/0S7w0rCNYhvue9q6Gg3b6TeKzWUzQWAbctJPB/wuos33hGUHUhkxPmCmTZRT29sCre1YNtaZxZFjnfznl1RXI1ir4SOdUc9vrgR98IA19H6ZKpf0wVFAv+jfkPdvLGWgDs7OQ4sADhsXpJXbwdvvGtr3V7ViyMTXyy2pwaPdPNel7qfCGCxsQZbnbgU+LqL97bEOVRDR6m7cL4gtc3HMaQUvGxB0dYRAfYOSfw3TEZJSHNAKB7NuL3bngtYQRk3ppB2ZPIKlpX2IXwudTFjLBlRFFkyLSewdC/of4giTcOt3+x2wx43bhcWW94nQOStIlJrwReyWCpAyY3YgtyeEs4NpqaGWwG249F7JVK0ff71Cdkb44BNcks1grZN9SYnh2NPp2J7hWW2lEpQ4UzPNxTcAXD20UcEne44y/AO2qiE7t9lPHwYvj0AewoN280zYzJXuij4KI71oDVJvuJ8/eks5iIdkW+gfm8Iv9MD7ReqIgCsBb7Y2FU38saFgTcDqf4F6/DNLWMKwwfnS1dkx4WNcosGuO7zedXNo5onoScD3nbz3lQxuSrcm2VR411bqvlUW8Ui4lTg225e/007W7p2ADDxxSq3Onq82feMMzUDXniL3wU36kbm5Q0JDRWysWTPxOcz99+N1kuHUmIA8CvIlyrGmAkotI4JKe6Dc1zHtLJrg1e0DL74HX0pbZe8OraF2mJ8JIvysyfYp9X4kQxnTP4R2iZ68a1ihAyvneg+Vj8e/EYm01KodgQ3pGG0HfmYfobSQl7Z4DyKvqmUXYQoe5gWT5wYXxTMoXvUXwZsDjSNo6i4O40pu5luZ7RfVv39R1rYLx5Oza280Wq3aPrBI2wNOT5wvrT6XaZed8I3P6fzBbC4V/LCZUPgD4Ib05z20IIveGMe+px0pNeElzN018mfvpmRL26OTS3KHpbM4eoKLZS9FVq5LJV1/DKOWROYUTB3u6Q8X4r/GrHtcl9pCaNDuUz9+eJ8NmOa5q0ovCTqT9pw9gvdjMJH6xV8CUweojmDisag84WlciMHABBbOSTVyBfLwFsHu364O/eF9h47Rr4A3AeCfFE+sRj5survb8Sv6gozRLnh2DrOl+EyF9qlEwB9+IIVZ+EesSk3K0AeKo56kkYGcXC+NHodogRksBy68gVvsFIER3e+BJYXIWjz69Lgoy3V4v7DIaHHB6RN/XlusvCnLNCg0alRVlN/vhDgUIp3EKurwBd8hF5tY3TjS9D9K5++qsRfNNgvG7YL3kH7Rfm0AoCRL6vuH1nEXgwZ7eaN1nscpA9FKDrh6FD/kDcuDLhOm9tE+EfkHBnt7BdFoThoeK6tLbzxzuDcEGIH7td0bancSY3Cyvyj51dtVAIwTP4RA6dotS+5gv+km4eq9zSM4qFNS8+qN0Jx//GrLdWUX9EK8QXgP+m53v206IZKH1bIfsHNmYXRVDzerdII6obUzhmUMf6yufg3lehi9bgoIQGPv2AZNftHePxlYUSwl1oHXDZhvsjMk/Fu3nC9b1a8FTH/xTXAljL/hX0mNwJLUEfGd61OXQt+08WjxDi04QvnQnZQ6zWn/QFYkBgAwHW0uYHFgMnosgx275v8b8viuxsOnPZ90cEb7wzJ30qN/hDnFBNfLBMzt4x1b3tV7H5yywYsTsz8YQecLG7redYjrLjIo8d38N9q60T/3UmZN7Qhob4MkVa8GKinzOs1IF+sjrZUo6hQ/OYCFlVV+nCD698JUeTBUPM3B0PsqXEPasIV4gtwyHzWiCItk8+ST8U7M12XsIZpHD/yv/e/dehieX+3vxMHgI32cSWHun4s/cxsv2w80vKBefwIu0/pwwK6MPPa7AaoGe2XVfePMDsi9LA39humDwmPd5O2CWD7OqmJaDwObzzGldsUWvEFmyOjXAtvpGbzHtIhUjsQ3kX1oWR+mWo549Toj4ejuhnJPNUgDi/z4TPi05BOdwAtI84M4yEPciQIn/mCxxoUc1iW5gvxm1fjTajEVjclp40rxTUUFQH89gJKpEMWjqENGzPVpbhjgNG1UQRcyMCTglxK8RcAiNsLVDulqEiWeWvRKwmKTgqTHRSlyZe4R97mLCxq7x/heEFEj86rx6tdsnCSeGuCdKBIfXxYXvN6+2bky6rHd2VKc30cCvKC+9vI6XNB9efsqfcfsd3tC4tCB9rx2wgeR/VXeGXw2HK4AAC04Qvg+thnZwfJamG6y8nOJj1LnqYrerDev4g2kU87vgDAdtqYQZYjh5oqX9gBJ4taup+qsV8IlwRFhZ865ZPDiJsG0Hbp21N8mXCG5AsA3JibVwY+NM6TlKHwBZvRtiuxZaB6Fp9fJ/9trw5fsNFkfLKfCJ+AJ2+MmqEr1yud04zzdzd6ZU3cnMIn1yFfysa/T8nO2vXk7+rHj2Tzd8caEpnoYOF5/ekMRhjpcK38+DClXV/bGfmy6vGX9aUz7I0JKoDff4SKutL0vbsR65Ps/qPpx2nqJ+8S/XbJ6hVjfIH2i+w8gHwxwR8EbJKBFYgtHxQjqGSwMoF0hHWrQXb/tCa6WNj5H8jtmcTeeCsZKInSrfy1nprRfln1+wPWurKw/WtCAe+0zsnPqH6PaOBuu4lxQ9PzX+S3BmAvvDXHhzgw8mX1729cE6cnbOTaVwB7ft3L6v3O1LkHWvXKwj310ehQ/SF75tQYXxDpzMRQew5fQzLmAtb4Hka+QP9ojR9Z2HyowOorAPmy+scAtgAqsF4VYOSLyTwfc70qD/sFFVj/CjDyZf13HfYQKgAVMLICkC9GFhgWDxUwYwUgX8z44MOuQwWMrADki5EFhsVDBcxYARW+HG+bRlH0s2RyUHhnl5pbv8xYK9h1qABUQDcFGPhCPI5Y9CTdW7fiYGqoAFQAKkAqoMIXbA/HOS67a2IBRcX9+bIHLJEZ4AJUACoAFdBSAbV8wfI6Xer6iKKj9Tu0LAgmgwpABaACSgow8gXggRjIFyW94CpUACqgvQKQL9prBVNCBaACuimwFF8aEiiPgtOtaJgaKgAVMHMFmPnie7N3BkVEfaWH/dQ/VdTMlYPdhwpABZZSgJkvgBOT2zMuxh67haKfnl6HI9VLaQn3QwWgAnQFIF/oesA1qABUwHAKMPMlMLtvFkVEz/ISNkP/yHCCw5KgAmakADNfiPFpGN81o5MBdhUqYGAFluILnF9nYMFhcVABM1IA8sWMDjbsKlRghRWAfFlhwWF1UAEzUoCRL/D+IzM6C2BXoQLGUUAtXzjOcZnC0Xl4/7RxNIelQgXMRQEVvhDPl4LPfzGXEwD2EypgRAUY+AKfX2dEzWHRUAFzUUCFL+bScdhPqABUwOgKQL4YXWJYAVTAbBWAfDHbQw87DhUwugKQL0aXGFYAFTBbBSBfzPbQw45DBYyuAOSL0SWGFUAFzFaB/w/4rDuUn93PSAAAAABJRU5ErkJggg==;" parent="WIyWlLk6GJQsqaUBKTNV-1" vertex="1">
          <mxGeometry x="560" y="-1362" width="165.78" height="72" as="geometry" />
        </mxCell>
        <mxCell id="bD7XFXdZObLop9luvsxW-16" value="1. Main 실행&lt;div&gt;2. Main 연산에 필요한 데이터(지역변수, 매개변수)를 스택에 쌓아야함 (함수호출스택)&amp;nbsp;&lt;/div&gt;" style="text;html=1;align=left;verticalAlign=middle;whiteSpace=wrap;rounded=0;" parent="WIyWlLk6GJQsqaUBKTNV-1" vertex="1">
          <mxGeometry x="514" y="-1280" width="480" height="190" as="geometry" />
        </mxCell>
        <mxCell id="bD7XFXdZObLop9luvsxW-17" value="" style="rounded=0;whiteSpace=wrap;html=1;" parent="WIyWlLk6GJQsqaUBKTNV-1" vertex="1">
          <mxGeometry x="390" y="-1136" width="95" height="61" as="geometry" />
        </mxCell>
        <mxCell id="bD7XFXdZObLop9luvsxW-18" value="Main Stack" style="text;html=1;align=center;verticalAlign=middle;whiteSpace=wrap;rounded=0;" parent="WIyWlLk6GJQsqaUBKTNV-1" vertex="1">
          <mxGeometry x="384" y="-1155" width="88" height="30" as="geometry" />
        </mxCell>
        <mxCell id="bD7XFXdZObLop9luvsxW-19" value="string[] args" style="rounded=0;whiteSpace=wrap;html=1;" parent="WIyWlLk6GJQsqaUBKTNV-1" vertex="1">
          <mxGeometry x="393" y="-1132" width="85" height="19" as="geometry" />
        </mxCell>
        <mxCell id="bD7XFXdZObLop9luvsxW-20" value="int[] arr" style="rounded=0;whiteSpace=wrap;html=1;" parent="WIyWlLk6GJQsqaUBKTNV-1" vertex="1">
          <mxGeometry x="393" y="-1113" width="85" height="19" as="geometry" />
        </mxCell>
        <mxCell id="bD7XFXdZObLop9luvsxW-21" value="int a" style="rounded=0;whiteSpace=wrap;html=1;" parent="WIyWlLk6GJQsqaUBKTNV-1" vertex="1">
          <mxGeometry x="393" y="-1094" width="85" height="19" as="geometry" />
        </mxCell>
        <mxCell id="bD7XFXdZObLop9luvsxW-22" value="0x342CDA21" style="text;html=1;align=center;verticalAlign=middle;whiteSpace=wrap;rounded=0;fillColor=#f5f5f5;fontColor=#333333;strokeColor=#666666;" parent="WIyWlLk6GJQsqaUBKTNV-1" vertex="1">
          <mxGeometry x="283" y="-1245" width="94" height="30" as="geometry" />
        </mxCell>
        <mxCell id="bD7XFXdZObLop9luvsxW-24" value="F&lt;sub&gt;16&lt;/sub&gt;&amp;nbsp;= 1111&lt;sub&gt;2&lt;/sub&gt;&amp;nbsp;" style="text;html=1;align=center;verticalAlign=middle;whiteSpace=wrap;rounded=0;" parent="WIyWlLk6GJQsqaUBKTNV-1" vertex="1">
          <mxGeometry x="430" y="-1282" width="93" height="30" as="geometry" />
        </mxCell>
        <mxCell id="bD7XFXdZObLop9luvsxW-25" value="132&lt;sub&gt;10&lt;/sub&gt; = 1x 10^2 + 3x 10^1 + 2x 10^0" style="text;html=1;align=center;verticalAlign=middle;whiteSpace=wrap;rounded=0;" parent="WIyWlLk6GJQsqaUBKTNV-1" vertex="1">
          <mxGeometry x="533" y="-1286" width="249" height="30" as="geometry" />
        </mxCell>
        <mxCell id="bD7XFXdZObLop9luvsxW-26" value="1111&lt;sub&gt;2&lt;/sub&gt;&amp;nbsp;= 1x 2^3 + 1x 2^2 + 1x 2^1 + 1x 2^0" style="text;html=1;align=center;verticalAlign=middle;whiteSpace=wrap;rounded=0;" parent="WIyWlLk6GJQsqaUBKTNV-1" vertex="1">
          <mxGeometry x="538" y="-1256" width="249" height="30" as="geometry" />
        </mxCell>
        <mxCell id="bD7XFXdZObLop9luvsxW-27" value="2" style="rounded=0;whiteSpace=wrap;html=1;" parent="WIyWlLk6GJQsqaUBKTNV-1" vertex="1">
          <mxGeometry x="377.5" y="-1215" width="20.5" height="20" as="geometry" />
        </mxCell>
        <mxCell id="bD7XFXdZObLop9luvsxW-28" value="" style="rounded=0;whiteSpace=wrap;html=1;" parent="WIyWlLk6GJQsqaUBKTNV-1" vertex="1">
          <mxGeometry x="398" y="-1215" width="20.5" height="20" as="geometry" />
        </mxCell>
        <mxCell id="bD7XFXdZObLop9luvsxW-29" value="3" style="rounded=0;whiteSpace=wrap;html=1;" parent="WIyWlLk6GJQsqaUBKTNV-1" vertex="1">
          <mxGeometry x="398" y="-1215" width="20.5" height="20" as="geometry" />
        </mxCell>
        <mxCell id="bD7XFXdZObLop9luvsxW-30" value="" style="endArrow=classic;html=1;rounded=0;exitX=0;exitY=0.5;exitDx=0;exitDy=0;entryX=0.083;entryY=0.976;entryDx=0;entryDy=0;entryPerimeter=0;" parent="WIyWlLk6GJQsqaUBKTNV-1" source="bD7XFXdZObLop9luvsxW-20" target="bD7XFXdZObLop9luvsxW-22" edge="1">
          <mxGeometry width="50" height="50" relative="1" as="geometry">
            <mxPoint x="530" y="-1154" as="sourcePoint" />
            <mxPoint x="580" y="-1204" as="targetPoint" />
          </mxGeometry>
        </mxCell>
        <mxCell id="bD7XFXdZObLop9luvsxW-31" value="0x342CDA41" style="text;html=1;align=center;verticalAlign=middle;whiteSpace=wrap;rounded=0;fillColor=#f5f5f5;fontColor=#333333;strokeColor=#666666;" parent="WIyWlLk6GJQsqaUBKTNV-1" vertex="1">
          <mxGeometry x="310" y="-1275" width="94" height="30" as="geometry" />
        </mxCell>
        <mxCell id="MkvHme6QzsKMBjJaYuKv-0" value="f(x) = ax + b" style="text;html=1;align=center;verticalAlign=middle;whiteSpace=wrap;rounded=0;" parent="WIyWlLk6GJQsqaUBKTNV-1" vertex="1">
          <mxGeometry x="380" y="-1439" width="105" height="24" as="geometry" />
        </mxCell>
        <mxCell id="MkvHme6QzsKMBjJaYuKv-1" value="f(1) = a + b" style="text;html=1;align=center;verticalAlign=middle;whiteSpace=wrap;rounded=0;" parent="WIyWlLk6GJQsqaUBKTNV-1" vertex="1">
          <mxGeometry x="377.5" y="-1417" width="105" height="24" as="geometry" />
        </mxCell>
        <mxCell id="MkvHme6QzsKMBjJaYuKv-2" value="f(2) = 2a + b" style="text;html=1;align=center;verticalAlign=middle;whiteSpace=wrap;rounded=0;" parent="WIyWlLk6GJQsqaUBKTNV-1" vertex="1">
          <mxGeometry x="375.5" y="-1393" width="105" height="24" as="geometry" />
        </mxCell>
        <mxCell id="MkvHme6QzsKMBjJaYuKv-3" value="f(x) : 함수" style="text;html=1;align=center;verticalAlign=middle;whiteSpace=wrap;rounded=0;" parent="WIyWlLk6GJQsqaUBKTNV-1" vertex="1">
          <mxGeometry x="334" y="-1480" width="60" height="30" as="geometry" />
        </mxCell>
        <mxCell id="MkvHme6QzsKMBjJaYuKv-4" value="x : 변수" style="text;html=1;align=center;verticalAlign=middle;whiteSpace=wrap;rounded=0;" parent="WIyWlLk6GJQsqaUBKTNV-1" vertex="1">
          <mxGeometry x="313" y="-1447" width="60" height="30" as="geometry" />
        </mxCell>
        <mxCell id="MkvHme6QzsKMBjJaYuKv-5" value="ax + b : 함수식 (연산식)" style="text;html=1;align=center;verticalAlign=middle;whiteSpace=wrap;rounded=0;" parent="WIyWlLk6GJQsqaUBKTNV-1" vertex="1">
          <mxGeometry x="442" y="-1475" width="141" height="30" as="geometry" />
        </mxCell>
        <mxCell id="MkvHme6QzsKMBjJaYuKv-6" value="1, 2 : 인자" style="text;html=1;align=center;verticalAlign=middle;whiteSpace=wrap;rounded=0;" parent="WIyWlLk6GJQsqaUBKTNV-1" vertex="1">
          <mxGeometry x="243" y="-1410" width="141" height="30" as="geometry" />
        </mxCell>
        <mxCell id="MkvHme6QzsKMBjJaYuKv-7" value="Main(string[] args) =&amp;nbsp; int[] arr = {2,4,3}; int a= arr[1]; CW(a)" style="text;html=1;align=center;verticalAlign=middle;whiteSpace=wrap;rounded=0;" parent="WIyWlLk6GJQsqaUBKTNV-1" vertex="1">
          <mxGeometry x="485" y="-1439" width="345" height="24" as="geometry" />
        </mxCell>
        <mxCell id="MkvHme6QzsKMBjJaYuKv-8" value="" style="shape=image;verticalLabelPosition=bottom;labelBackgroundColor=default;verticalAlign=top;aspect=fixed;imageAspect=0;image=https://adrianmejia.com/images/time-complexity-examples.png;" parent="WIyWlLk6GJQsqaUBKTNV-1" vertex="1">
          <mxGeometry x="22.63" y="-866" width="314.74" height="332" as="geometry" />
        </mxCell>
        <mxCell id="MkvHme6QzsKMBjJaYuKv-9" value="&lt;div style=&quot;text-align: left;&quot;&gt;&lt;a style=&quot;color: var(--JKqx2); text-decoration-line: none; -webkit-tap-highlight-color: rgba(255, 255, 255, 0.1); outline: 0px; font-family: Arial, &amp;quot;Apple SD Gothic Neo&amp;quot;, sans-serif; font-size: small; background-color: rgb(31, 31, 31);&quot; data-ved=&quot;2ahUKEwik3OC7x5mKAxWbsFYBHUzyBQ4QFnoECBcQAQ&quot; href=&quot;https://namu.wiki/w/O&quot;&gt;&lt;h3 style=&quot;font-weight: 400; margin: 18px 0px 3px; padding: 5px 0px 0px; font-size: 20px; line-height: 1.3; display: inline-block;&quot; class=&quot;LC20lb MBeuO DKV0Md&quot;&gt;O&lt;/h3&gt;&lt;/a&gt;&lt;span style=&quot;background-color: initial;&quot;&gt;&amp;nbsp;: 빅-오 노테이션 (최악의 경우)&lt;/span&gt;&lt;/div&gt;&lt;div style=&quot;text-align: left;&quot;&gt;&lt;a style=&quot;color: var(--JKqx2); text-decoration-line: none; -webkit-tap-highlight-color: rgba(255, 255, 255, 0.1); outline: 0px; font-family: Arial, &amp;quot;Apple SD Gothic Neo&amp;quot;, sans-serif; font-size: small; background-color: rgb(31, 31, 31);&quot; data-ved=&quot;2ahUKEwjP1Kehx5mKAxXZ2TQHHacGAagQFnoECCIQAQ&quot; href=&quot;https://namu.wiki/w/%CE%A9&quot;&gt;&lt;h3 style=&quot;font-weight: 400; margin: 18px 0px 3px; padding: 5px 0px 0px; font-size: 20px; line-height: 1.3; display: inline-block;&quot; class=&quot;LC20lb MBeuO DKV0Md&quot;&gt;Ω&lt;/h3&gt;&lt;/a&gt;&amp;nbsp;: 빅- 오메가 노테이션 (최선의 경우)&lt;br&gt;&lt;/div&gt;&lt;div style=&quot;text-align: left;&quot;&gt;&lt;a style=&quot;color: var(--JKqx2); text-decoration-line: none; -webkit-tap-highlight-color: rgba(255, 255, 255, 0.1); outline: 0px; font-family: Arial, &amp;quot;Apple SD Gothic Neo&amp;quot;, sans-serif; font-size: small; background-color: rgb(31, 31, 31);&quot; data-ved=&quot;2ahUKEwi2zsKzx5mKAxXjklYBHYCbDnoQFnoECBoQAQ&quot; href=&quot;https://namu.wiki/w/%CE%98&quot;&gt;&lt;h3 style=&quot;font-weight: 400; margin: 18px 0px 3px; padding: 5px 0px 0px; font-size: 20px; line-height: 1.3; display: inline-block;&quot; class=&quot;LC20lb MBeuO DKV0Md&quot;&gt;Θ&lt;/h3&gt;&lt;/a&gt;&amp;nbsp;: 빅- 세타 노테이션 (평균의 경우)&lt;br&gt;&lt;/div&gt;" style="text;html=1;align=center;verticalAlign=middle;whiteSpace=wrap;rounded=0;" parent="WIyWlLk6GJQsqaUBKTNV-1" vertex="1">
          <mxGeometry x="360" y="-852" width="241" height="159" as="geometry" />
        </mxCell>
        <mxCell id="MkvHme6QzsKMBjJaYuKv-11" value="노드베이스 자료구조" style="text;html=1;align=left;verticalAlign=middle;whiteSpace=wrap;rounded=0;" parent="WIyWlLk6GJQsqaUBKTNV-1" vertex="1">
          <mxGeometry x="126.5" y="299" width="258" height="32" as="geometry" />
        </mxCell>
        <mxCell id="MkvHme6QzsKMBjJaYuKv-12" value="" style="ellipse;whiteSpace=wrap;html=1;aspect=fixed;" parent="WIyWlLk6GJQsqaUBKTNV-1" vertex="1">
          <mxGeometry x="197.75" y="391" width="101" height="101" as="geometry" />
        </mxCell>
        <mxCell id="MkvHme6QzsKMBjJaYuKv-13" value="Node" style="rounded=0;whiteSpace=wrap;html=1;" parent="WIyWlLk6GJQsqaUBKTNV-1" vertex="1">
          <mxGeometry x="209.75" y="367" width="77" height="30" as="geometry" />
        </mxCell>
        <mxCell id="MkvHme6QzsKMBjJaYuKv-14" value="value : 3" style="text;html=1;align=center;verticalAlign=middle;whiteSpace=wrap;rounded=0;" parent="WIyWlLk6GJQsqaUBKTNV-1" vertex="1">
          <mxGeometry x="218.25" y="403" width="60" height="30" as="geometry" />
        </mxCell>
        <mxCell id="zafRCyV8LOh7f-KUmATS-5" style="edgeStyle=orthogonalEdgeStyle;rounded=0;orthogonalLoop=1;jettySize=auto;html=1;entryX=0;entryY=0.25;entryDx=0;entryDy=0;" parent="WIyWlLk6GJQsqaUBKTNV-1" source="MkvHme6QzsKMBjJaYuKv-18" target="MkvHme6QzsKMBjJaYuKv-23" edge="1">
          <mxGeometry relative="1" as="geometry">
            <mxPoint x="372" y="382" as="targetPoint" />
          </mxGeometry>
        </mxCell>
        <mxCell id="MkvHme6QzsKMBjJaYuKv-18" value="Next" style="text;html=1;align=center;verticalAlign=middle;whiteSpace=wrap;rounded=0;fillColor=#f5f5f5;fontColor=#333333;strokeColor=#666666;" parent="WIyWlLk6GJQsqaUBKTNV-1" vertex="1">
          <mxGeometry x="218.25" y="433" width="60" height="21.5" as="geometry" />
        </mxCell>
        <mxCell id="MkvHme6QzsKMBjJaYuKv-22" value="" style="ellipse;whiteSpace=wrap;html=1;aspect=fixed;" parent="WIyWlLk6GJQsqaUBKTNV-1" vertex="1">
          <mxGeometry x="580.5" y="388" width="101" height="101" as="geometry" />
        </mxCell>
        <mxCell id="MkvHme6QzsKMBjJaYuKv-23" value="Node" style="rounded=0;whiteSpace=wrap;html=1;" parent="WIyWlLk6GJQsqaUBKTNV-1" vertex="1">
          <mxGeometry x="592.5" y="364" width="77" height="30" as="geometry" />
        </mxCell>
        <mxCell id="MkvHme6QzsKMBjJaYuKv-24" value="value : 5" style="text;html=1;align=center;verticalAlign=middle;whiteSpace=wrap;rounded=0;" parent="WIyWlLk6GJQsqaUBKTNV-1" vertex="1">
          <mxGeometry x="601" y="400" width="60" height="30" as="geometry" />
        </mxCell>
        <mxCell id="zafRCyV8LOh7f-KUmATS-7" style="edgeStyle=orthogonalEdgeStyle;rounded=0;orthogonalLoop=1;jettySize=auto;html=1;entryX=1;entryY=0.5;entryDx=0;entryDy=0;" parent="WIyWlLk6GJQsqaUBKTNV-1" source="MkvHme6QzsKMBjJaYuKv-25" target="MkvHme6QzsKMBjJaYuKv-13" edge="1">
          <mxGeometry relative="1" as="geometry">
            <mxPoint x="449" y="382" as="targetPoint" />
          </mxGeometry>
        </mxCell>
        <mxCell id="MkvHme6QzsKMBjJaYuKv-25" value="Prev" style="text;html=1;align=center;verticalAlign=middle;whiteSpace=wrap;rounded=0;fillColor=#f5f5f5;fontColor=#333333;strokeColor=#666666;" parent="WIyWlLk6GJQsqaUBKTNV-1" vertex="1">
          <mxGeometry x="601" y="451.5" width="60" height="21.5" as="geometry" />
        </mxCell>
        <mxCell id="MkvHme6QzsKMBjJaYuKv-37" style="edgeStyle=orthogonalEdgeStyle;rounded=0;orthogonalLoop=1;jettySize=auto;html=1;entryX=1;entryY=0.5;entryDx=0;entryDy=0;fillColor=#dae8fc;strokeColor=#6c8ebf;" parent="WIyWlLk6GJQsqaUBKTNV-1" source="MkvHme6QzsKMBjJaYuKv-29" target="MkvHme6QzsKMBjJaYuKv-32" edge="1">
          <mxGeometry relative="1" as="geometry" />
        </mxCell>
        <mxCell id="MkvHme6QzsKMBjJaYuKv-29" value="Prev" style="text;html=1;align=center;verticalAlign=middle;whiteSpace=wrap;rounded=0;fillColor=#f5f5f5;fontColor=#333333;strokeColor=#666666;" parent="WIyWlLk6GJQsqaUBKTNV-1" vertex="1">
          <mxGeometry x="218.25" y="458" width="60" height="21.5" as="geometry" />
        </mxCell>
        <mxCell id="MkvHme6QzsKMBjJaYuKv-30" value="Next" style="text;html=1;align=center;verticalAlign=middle;whiteSpace=wrap;rounded=0;fillColor=#f5f5f5;fontColor=#333333;strokeColor=#666666;" parent="WIyWlLk6GJQsqaUBKTNV-1" vertex="1">
          <mxGeometry x="601" y="427.75" width="60" height="21.5" as="geometry" />
        </mxCell>
        <mxCell id="MkvHme6QzsKMBjJaYuKv-31" value="" style="ellipse;whiteSpace=wrap;html=1;aspect=fixed;" parent="WIyWlLk6GJQsqaUBKTNV-1" vertex="1">
          <mxGeometry x="31.25" y="391" width="101" height="101" as="geometry" />
        </mxCell>
        <mxCell id="MkvHme6QzsKMBjJaYuKv-32" value="Node" style="rounded=0;whiteSpace=wrap;html=1;" parent="WIyWlLk6GJQsqaUBKTNV-1" vertex="1">
          <mxGeometry x="43.25" y="367" width="77" height="30" as="geometry" />
        </mxCell>
        <mxCell id="MkvHme6QzsKMBjJaYuKv-33" value="value : 1" style="text;html=1;align=center;verticalAlign=middle;whiteSpace=wrap;rounded=0;" parent="WIyWlLk6GJQsqaUBKTNV-1" vertex="1">
          <mxGeometry x="51.75" y="403" width="60" height="30" as="geometry" />
        </mxCell>
        <mxCell id="MkvHme6QzsKMBjJaYuKv-36" style="edgeStyle=orthogonalEdgeStyle;rounded=0;orthogonalLoop=1;jettySize=auto;html=1;entryX=0;entryY=0.5;entryDx=0;entryDy=0;fillColor=#d5e8d4;strokeColor=#82b366;" parent="WIyWlLk6GJQsqaUBKTNV-1" source="MkvHme6QzsKMBjJaYuKv-34" target="MkvHme6QzsKMBjJaYuKv-13" edge="1">
          <mxGeometry relative="1" as="geometry" />
        </mxCell>
        <mxCell id="MkvHme6QzsKMBjJaYuKv-34" value="Next" style="text;html=1;align=center;verticalAlign=middle;whiteSpace=wrap;rounded=0;fillColor=#f5f5f5;fontColor=#333333;strokeColor=#666666;" parent="WIyWlLk6GJQsqaUBKTNV-1" vertex="1">
          <mxGeometry x="51.75" y="433" width="60" height="21.5" as="geometry" />
        </mxCell>
        <mxCell id="MkvHme6QzsKMBjJaYuKv-35" value="Prev" style="text;html=1;align=center;verticalAlign=middle;whiteSpace=wrap;rounded=0;fillColor=#f5f5f5;fontColor=#333333;strokeColor=#666666;" parent="WIyWlLk6GJQsqaUBKTNV-1" vertex="1">
          <mxGeometry x="51.75" y="458" width="60" height="21.5" as="geometry" />
        </mxCell>
        <mxCell id="MkvHme6QzsKMBjJaYuKv-46" value="First" style="text;html=1;align=center;verticalAlign=middle;whiteSpace=wrap;rounded=0;" parent="WIyWlLk6GJQsqaUBKTNV-1" vertex="1">
          <mxGeometry x="54.25" y="513" width="60" height="30" as="geometry" />
        </mxCell>
        <mxCell id="MkvHme6QzsKMBjJaYuKv-47" value="Last" style="text;html=1;align=center;verticalAlign=middle;whiteSpace=wrap;rounded=0;" parent="WIyWlLk6GJQsqaUBKTNV-1" vertex="1">
          <mxGeometry x="605" y="509" width="60" height="30" as="geometry" />
        </mxCell>
        <mxCell id="zafRCyV8LOh7f-KUmATS-6" style="edgeStyle=orthogonalEdgeStyle;rounded=0;orthogonalLoop=1;jettySize=auto;html=1;exitX=0.5;exitY=1;exitDx=0;exitDy=0;" parent="WIyWlLk6GJQsqaUBKTNV-1" source="MkvHme6QzsKMBjJaYuKv-25" target="MkvHme6QzsKMBjJaYuKv-25" edge="1">
          <mxGeometry relative="1" as="geometry" />
        </mxCell>
        <mxCell id="zafRCyV8LOh7f-KUmATS-8" value="큐" style="rounded=0;whiteSpace=wrap;html=1;" parent="WIyWlLk6GJQsqaUBKTNV-1" vertex="1">
          <mxGeometry x="1206" y="-70" width="120" height="30" as="geometry" />
        </mxCell>
        <mxCell id="zafRCyV8LOh7f-KUmATS-9" value="선입선출 (먼저 들어온 아이템이 먼저 삭제됨)" style="text;html=1;align=center;verticalAlign=middle;whiteSpace=wrap;rounded=0;" parent="WIyWlLk6GJQsqaUBKTNV-1" vertex="1">
          <mxGeometry x="1355" y="-67" width="284" height="30" as="geometry" />
        </mxCell>
        <mxCell id="zafRCyV8LOh7f-KUmATS-14" value="7" style="whiteSpace=wrap;html=1;aspect=fixed;" parent="WIyWlLk6GJQsqaUBKTNV-1" vertex="1">
          <mxGeometry x="1214" y="26" width="80" height="80" as="geometry" />
        </mxCell>
        <mxCell id="zafRCyV8LOh7f-KUmATS-15" value="5" style="whiteSpace=wrap;html=1;aspect=fixed;" parent="WIyWlLk6GJQsqaUBKTNV-1" vertex="1">
          <mxGeometry x="1300" y="26" width="80" height="80" as="geometry" />
        </mxCell>
        <mxCell id="zafRCyV8LOh7f-KUmATS-16" value="" style="whiteSpace=wrap;html=1;aspect=fixed;" parent="WIyWlLk6GJQsqaUBKTNV-1" vertex="1">
          <mxGeometry x="1387" y="26" width="80" height="80" as="geometry" />
        </mxCell>
        <mxCell id="zafRCyV8LOh7f-KUmATS-17" value="6" style="whiteSpace=wrap;html=1;aspect=fixed;" parent="WIyWlLk6GJQsqaUBKTNV-1" vertex="1">
          <mxGeometry x="1474" y="26" width="80" height="80" as="geometry" />
        </mxCell>
        <mxCell id="zafRCyV8LOh7f-KUmATS-18" value="First" style="text;html=1;align=center;verticalAlign=middle;whiteSpace=wrap;rounded=0;" parent="WIyWlLk6GJQsqaUBKTNV-1" vertex="1">
          <mxGeometry x="1489" y="123" width="60" height="30" as="geometry" />
        </mxCell>
        <mxCell id="zafRCyV8LOh7f-KUmATS-19" value="Last" style="text;html=1;align=center;verticalAlign=middle;whiteSpace=wrap;rounded=0;" parent="WIyWlLk6GJQsqaUBKTNV-1" vertex="1">
          <mxGeometry x="1316" y="123" width="60" height="30" as="geometry" />
        </mxCell>
        <mxCell id="zafRCyV8LOh7f-KUmATS-20" value="이진트리" style="rounded=0;whiteSpace=wrap;html=1;" parent="WIyWlLk6GJQsqaUBKTNV-1" vertex="1">
          <mxGeometry x="1686" y="-70" width="120" height="30" as="geometry" />
        </mxCell>
        <mxCell id="zafRCyV8LOh7f-KUmATS-21" value="노드베이스 자료구조.&lt;div&gt;노드에 왼쪽과 오른쪽 자식 노드를 추가가능&lt;/div&gt;&lt;div&gt;완전하다 = 왼쪽과 오른쪽의 밸런스가 완벽하다..&lt;/div&gt;&lt;div&gt;밸런스를 맞추기위해 중복값을 허용하지 않는 자료구조.&lt;/div&gt;" style="text;html=1;align=center;verticalAlign=middle;whiteSpace=wrap;rounded=0;" parent="WIyWlLk6GJQsqaUBKTNV-1" vertex="1">
          <mxGeometry x="1816" y="-70" width="326" height="51" as="geometry" />
        </mxCell>
        <mxCell id="zafRCyV8LOh7f-KUmATS-27" style="edgeStyle=orthogonalEdgeStyle;rounded=0;orthogonalLoop=1;jettySize=auto;html=1;entryX=0.5;entryY=0;entryDx=0;entryDy=0;" parent="WIyWlLk6GJQsqaUBKTNV-1" source="zafRCyV8LOh7f-KUmATS-22" target="zafRCyV8LOh7f-KUmATS-26" edge="1">
          <mxGeometry relative="1" as="geometry" />
        </mxCell>
        <mxCell id="zafRCyV8LOh7f-KUmATS-36" style="edgeStyle=orthogonalEdgeStyle;rounded=0;orthogonalLoop=1;jettySize=auto;html=1;entryX=0.5;entryY=0;entryDx=0;entryDy=0;" parent="WIyWlLk6GJQsqaUBKTNV-1" source="zafRCyV8LOh7f-KUmATS-22" target="zafRCyV8LOh7f-KUmATS-35" edge="1">
          <mxGeometry relative="1" as="geometry" />
        </mxCell>
        <mxCell id="zafRCyV8LOh7f-KUmATS-22" value="7" style="ellipse;whiteSpace=wrap;html=1;aspect=fixed;" parent="WIyWlLk6GJQsqaUBKTNV-1" vertex="1">
          <mxGeometry x="2005" y="22" width="80" height="80" as="geometry" />
        </mxCell>
        <mxCell id="zafRCyV8LOh7f-KUmATS-23" value="Node" style="rounded=0;whiteSpace=wrap;html=1;" parent="WIyWlLk6GJQsqaUBKTNV-1" vertex="1">
          <mxGeometry x="2011" y="14" width="68" height="31" as="geometry" />
        </mxCell>
        <mxCell id="zafRCyV8LOh7f-KUmATS-24" value="Root : 첫 노드" style="text;html=1;align=center;verticalAlign=middle;whiteSpace=wrap;rounded=0;" parent="WIyWlLk6GJQsqaUBKTNV-1" vertex="1">
          <mxGeometry x="1735" y="12" width="101" height="30" as="geometry" />
        </mxCell>
        <mxCell id="zafRCyV8LOh7f-KUmATS-30" style="edgeStyle=orthogonalEdgeStyle;rounded=0;orthogonalLoop=1;jettySize=auto;html=1;" parent="WIyWlLk6GJQsqaUBKTNV-1" source="zafRCyV8LOh7f-KUmATS-25" target="zafRCyV8LOh7f-KUmATS-29" edge="1">
          <mxGeometry relative="1" as="geometry" />
        </mxCell>
        <mxCell id="zafRCyV8LOh7f-KUmATS-33" style="edgeStyle=orthogonalEdgeStyle;rounded=0;orthogonalLoop=1;jettySize=auto;html=1;" parent="WIyWlLk6GJQsqaUBKTNV-1" source="zafRCyV8LOh7f-KUmATS-25" target="zafRCyV8LOh7f-KUmATS-32" edge="1">
          <mxGeometry relative="1" as="geometry" />
        </mxCell>
        <mxCell id="zafRCyV8LOh7f-KUmATS-25" value="4" style="ellipse;whiteSpace=wrap;html=1;aspect=fixed;" parent="WIyWlLk6GJQsqaUBKTNV-1" vertex="1">
          <mxGeometry x="1813" y="114" width="80" height="80" as="geometry" />
        </mxCell>
        <mxCell id="zafRCyV8LOh7f-KUmATS-26" value="Node" style="rounded=0;whiteSpace=wrap;html=1;" parent="WIyWlLk6GJQsqaUBKTNV-1" vertex="1">
          <mxGeometry x="1819" y="106" width="68" height="31" as="geometry" />
        </mxCell>
        <mxCell id="zafRCyV8LOh7f-KUmATS-28" value="1" style="ellipse;whiteSpace=wrap;html=1;aspect=fixed;" parent="WIyWlLk6GJQsqaUBKTNV-1" vertex="1">
          <mxGeometry x="1726" y="220" width="80" height="80" as="geometry" />
        </mxCell>
        <mxCell id="zafRCyV8LOh7f-KUmATS-29" value="Node" style="rounded=0;whiteSpace=wrap;html=1;" parent="WIyWlLk6GJQsqaUBKTNV-1" vertex="1">
          <mxGeometry x="1732" y="212" width="68" height="31" as="geometry" />
        </mxCell>
        <mxCell id="zafRCyV8LOh7f-KUmATS-31" value="5" style="ellipse;whiteSpace=wrap;html=1;aspect=fixed;" parent="WIyWlLk6GJQsqaUBKTNV-1" vertex="1">
          <mxGeometry x="1897" y="219" width="80" height="80" as="geometry" />
        </mxCell>
        <mxCell id="zafRCyV8LOh7f-KUmATS-32" value="Node" style="rounded=0;whiteSpace=wrap;html=1;" parent="WIyWlLk6GJQsqaUBKTNV-1" vertex="1">
          <mxGeometry x="1903" y="211" width="68" height="31" as="geometry" />
        </mxCell>
        <mxCell id="zafRCyV8LOh7f-KUmATS-39" style="edgeStyle=orthogonalEdgeStyle;rounded=0;orthogonalLoop=1;jettySize=auto;html=1;" parent="WIyWlLk6GJQsqaUBKTNV-1" source="zafRCyV8LOh7f-KUmATS-34" target="zafRCyV8LOh7f-KUmATS-38" edge="1">
          <mxGeometry relative="1" as="geometry" />
        </mxCell>
        <mxCell id="zafRCyV8LOh7f-KUmATS-44" style="edgeStyle=orthogonalEdgeStyle;rounded=0;orthogonalLoop=1;jettySize=auto;html=1;" parent="WIyWlLk6GJQsqaUBKTNV-1" source="zafRCyV8LOh7f-KUmATS-34" target="zafRCyV8LOh7f-KUmATS-43" edge="1">
          <mxGeometry relative="1" as="geometry" />
        </mxCell>
        <mxCell id="zafRCyV8LOh7f-KUmATS-34" value="10" style="ellipse;whiteSpace=wrap;html=1;aspect=fixed;" parent="WIyWlLk6GJQsqaUBKTNV-1" vertex="1">
          <mxGeometry x="2201" y="102" width="80" height="80" as="geometry" />
        </mxCell>
        <mxCell id="zafRCyV8LOh7f-KUmATS-35" value="Node" style="rounded=0;whiteSpace=wrap;html=1;" parent="WIyWlLk6GJQsqaUBKTNV-1" vertex="1">
          <mxGeometry x="2207" y="94" width="68" height="31" as="geometry" />
        </mxCell>
        <mxCell id="zafRCyV8LOh7f-KUmATS-37" value="8" style="ellipse;whiteSpace=wrap;html=1;aspect=fixed;" parent="WIyWlLk6GJQsqaUBKTNV-1" vertex="1">
          <mxGeometry x="2108" y="209" width="80" height="80" as="geometry" />
        </mxCell>
        <mxCell id="zafRCyV8LOh7f-KUmATS-38" value="Node" style="rounded=0;whiteSpace=wrap;html=1;" parent="WIyWlLk6GJQsqaUBKTNV-1" vertex="1">
          <mxGeometry x="2114" y="201" width="68" height="31" as="geometry" />
        </mxCell>
        <mxCell id="zafRCyV8LOh7f-KUmATS-42" value="13" style="ellipse;whiteSpace=wrap;html=1;aspect=fixed;" parent="WIyWlLk6GJQsqaUBKTNV-1" vertex="1">
          <mxGeometry x="2298" y="220" width="80" height="80" as="geometry" />
        </mxCell>
        <mxCell id="zafRCyV8LOh7f-KUmATS-43" value="Node" style="rounded=0;whiteSpace=wrap;html=1;" parent="WIyWlLk6GJQsqaUBKTNV-1" vertex="1">
          <mxGeometry x="2304" y="212" width="68" height="31" as="geometry" />
        </mxCell>
        <mxCell id="zafRCyV8LOh7f-KUmATS-51" value="밸런스는&amp;nbsp;&lt;div&gt;특정 노드의, 왼쪽 Leaf 노드의 높이와 오른쪽 Leaf 노드 높이의 차이가 1보다 크면 밸런스가 깨진것이므로 리밸런싱을 해야함.&lt;/div&gt;" style="text;html=1;align=center;verticalAlign=middle;whiteSpace=wrap;rounded=0;" parent="WIyWlLk6GJQsqaUBKTNV-1" vertex="1">
          <mxGeometry x="2174" y="-70" width="365" height="51" as="geometry" />
        </mxCell>
        <mxCell id="zafRCyV8LOh7f-KUmATS-52" value="AVL 트리의&lt;div&gt;밸런싱&lt;/div&gt;" style="text;html=1;align=center;verticalAlign=middle;whiteSpace=wrap;rounded=0;fillColor=#f5f5f5;fontColor=#333333;strokeColor=#666666;" parent="WIyWlLk6GJQsqaUBKTNV-1" vertex="1">
          <mxGeometry x="1680.5" y="412" width="115" height="30" as="geometry" />
        </mxCell>
        <mxCell id="zafRCyV8LOh7f-KUmATS-53" value="LL case (오른쪽 회전)" style="text;html=1;align=center;verticalAlign=middle;whiteSpace=wrap;rounded=0;" parent="WIyWlLk6GJQsqaUBKTNV-1" vertex="1">
          <mxGeometry x="1960.25" y="447.25" width="140.75" height="30" as="geometry" />
        </mxCell>
        <mxCell id="zafRCyV8LOh7f-KUmATS-55" value="Branch&lt;div&gt;Root&lt;/div&gt;" style="ellipse;whiteSpace=wrap;html=1;aspect=fixed;" parent="WIyWlLk6GJQsqaUBKTNV-1" vertex="1">
          <mxGeometry x="1679" y="539" width="45" height="45" as="geometry" />
        </mxCell>
        <mxCell id="zafRCyV8LOh7f-KUmATS-65" style="edgeStyle=orthogonalEdgeStyle;rounded=0;orthogonalLoop=1;jettySize=auto;html=1;" parent="WIyWlLk6GJQsqaUBKTNV-1" source="zafRCyV8LOh7f-KUmATS-62" target="zafRCyV8LOh7f-KUmATS-63" edge="1">
          <mxGeometry relative="1" as="geometry" />
        </mxCell>
        <mxCell id="zafRCyV8LOh7f-KUmATS-62" value="New&lt;div&gt;Branch&lt;/div&gt;&lt;div&gt;Root&lt;/div&gt;" style="ellipse;whiteSpace=wrap;html=1;aspect=fixed;" parent="WIyWlLk6GJQsqaUBKTNV-1" vertex="1">
          <mxGeometry x="1729" y="590" width="49" height="49" as="geometry" />
        </mxCell>
        <mxCell id="zafRCyV8LOh7f-KUmATS-63" value="" style="ellipse;whiteSpace=wrap;html=1;aspect=fixed;" parent="WIyWlLk6GJQsqaUBKTNV-1" vertex="1">
          <mxGeometry x="1788" y="644" width="48" height="48" as="geometry" />
        </mxCell>
        <mxCell id="zafRCyV8LOh7f-KUmATS-64" style="edgeStyle=orthogonalEdgeStyle;rounded=0;orthogonalLoop=1;jettySize=auto;html=1;entryX=0.5;entryY=0;entryDx=0;entryDy=0;" parent="WIyWlLk6GJQsqaUBKTNV-1" source="zafRCyV8LOh7f-KUmATS-55" target="zafRCyV8LOh7f-KUmATS-62" edge="1">
          <mxGeometry relative="1" as="geometry" />
        </mxCell>
        <mxCell id="zafRCyV8LOh7f-KUmATS-73" value="1. 현재 밸런스가 깨진&lt;div&gt;Branch의 Root 의 오른쪽자식을&amp;nbsp;&lt;/div&gt;&lt;div&gt;새로운 Branch Root 로 삼음&lt;/div&gt;" style="rounded=0;whiteSpace=wrap;html=1;" parent="WIyWlLk6GJQsqaUBKTNV-1" vertex="1">
          <mxGeometry x="1669.5" y="481.5" width="260.5" height="51" as="geometry" />
        </mxCell>
        <mxCell id="zafRCyV8LOh7f-KUmATS-74" value="2. Branch Root 의 오른쪽자식 연결 끊고,&amp;nbsp;&lt;div&gt;New BranchRoot 의 왼쪽 자식으로 삼는다.&lt;/div&gt;" style="rounded=0;whiteSpace=wrap;html=1;" parent="WIyWlLk6GJQsqaUBKTNV-1" vertex="1">
          <mxGeometry x="1673" y="704" width="247" height="51" as="geometry" />
        </mxCell>
        <mxCell id="zafRCyV8LOh7f-KUmATS-76" value="Branch&lt;div&gt;Root&lt;/div&gt;" style="ellipse;whiteSpace=wrap;html=1;aspect=fixed;" parent="WIyWlLk6GJQsqaUBKTNV-1" vertex="1">
          <mxGeometry x="1718.5" y="824" width="45" height="45" as="geometry" />
        </mxCell>
        <mxCell id="zafRCyV8LOh7f-KUmATS-77" style="edgeStyle=orthogonalEdgeStyle;rounded=0;orthogonalLoop=1;jettySize=auto;html=1;" parent="WIyWlLk6GJQsqaUBKTNV-1" source="zafRCyV8LOh7f-KUmATS-78" target="zafRCyV8LOh7f-KUmATS-79" edge="1">
          <mxGeometry relative="1" as="geometry" />
        </mxCell>
        <mxCell id="zafRCyV8LOh7f-KUmATS-81" style="edgeStyle=orthogonalEdgeStyle;rounded=0;orthogonalLoop=1;jettySize=auto;html=1;entryX=0.5;entryY=0;entryDx=0;entryDy=0;" parent="WIyWlLk6GJQsqaUBKTNV-1" source="zafRCyV8LOh7f-KUmATS-78" target="zafRCyV8LOh7f-KUmATS-76" edge="1">
          <mxGeometry relative="1" as="geometry" />
        </mxCell>
        <mxCell id="zafRCyV8LOh7f-KUmATS-78" value="New&lt;div&gt;Branch&lt;/div&gt;&lt;div&gt;Root&lt;/div&gt;" style="ellipse;whiteSpace=wrap;html=1;aspect=fixed;" parent="WIyWlLk6GJQsqaUBKTNV-1" vertex="1">
          <mxGeometry x="1767.5" y="767" width="49" height="49" as="geometry" />
        </mxCell>
        <mxCell id="zafRCyV8LOh7f-KUmATS-79" value="" style="ellipse;whiteSpace=wrap;html=1;aspect=fixed;" parent="WIyWlLk6GJQsqaUBKTNV-1" vertex="1">
          <mxGeometry x="1826.5" y="821" width="48" height="48" as="geometry" />
        </mxCell>
        <mxCell id="zafRCyV8LOh7f-KUmATS-82" value="3. 원래 Branch Root 의 부모 노드의 오른쪽 자식을&amp;nbsp;&lt;span style=&quot;background-color: initial;&quot;&gt;New Branch Root 로 바꾼다.&lt;/span&gt;" style="rounded=0;whiteSpace=wrap;html=1;" parent="WIyWlLk6GJQsqaUBKTNV-1" vertex="1">
          <mxGeometry x="1676.25" y="890" width="247" height="51" as="geometry" />
        </mxCell>
        <mxCell id="zafRCyV8LOh7f-KUmATS-83" value="Branch&lt;div&gt;Root&lt;/div&gt;" style="ellipse;whiteSpace=wrap;html=1;aspect=fixed;" parent="WIyWlLk6GJQsqaUBKTNV-1" vertex="1">
          <mxGeometry x="1750" y="1055" width="45" height="45" as="geometry" />
        </mxCell>
        <mxCell id="zafRCyV8LOh7f-KUmATS-84" style="edgeStyle=orthogonalEdgeStyle;rounded=0;orthogonalLoop=1;jettySize=auto;html=1;" parent="WIyWlLk6GJQsqaUBKTNV-1" source="zafRCyV8LOh7f-KUmATS-86" target="zafRCyV8LOh7f-KUmATS-87" edge="1">
          <mxGeometry relative="1" as="geometry" />
        </mxCell>
        <mxCell id="zafRCyV8LOh7f-KUmATS-85" style="edgeStyle=orthogonalEdgeStyle;rounded=0;orthogonalLoop=1;jettySize=auto;html=1;entryX=0.5;entryY=0;entryDx=0;entryDy=0;" parent="WIyWlLk6GJQsqaUBKTNV-1" source="zafRCyV8LOh7f-KUmATS-86" target="zafRCyV8LOh7f-KUmATS-83" edge="1">
          <mxGeometry relative="1" as="geometry" />
        </mxCell>
        <mxCell id="zafRCyV8LOh7f-KUmATS-86" value="New&lt;div&gt;Branch&lt;/div&gt;&lt;div&gt;Root&lt;/div&gt;" style="ellipse;whiteSpace=wrap;html=1;aspect=fixed;" parent="WIyWlLk6GJQsqaUBKTNV-1" vertex="1">
          <mxGeometry x="1799" y="998" width="49" height="49" as="geometry" />
        </mxCell>
        <mxCell id="zafRCyV8LOh7f-KUmATS-87" value="" style="ellipse;whiteSpace=wrap;html=1;aspect=fixed;" parent="WIyWlLk6GJQsqaUBKTNV-1" vertex="1">
          <mxGeometry x="1858" y="1052" width="48" height="48" as="geometry" />
        </mxCell>
        <mxCell id="zafRCyV8LOh7f-KUmATS-88" value="Parent" style="ellipse;whiteSpace=wrap;html=1;aspect=fixed;" parent="WIyWlLk6GJQsqaUBKTNV-1" vertex="1">
          <mxGeometry x="1732" y="941" width="48" height="48" as="geometry" />
        </mxCell>
        <mxCell id="zafRCyV8LOh7f-KUmATS-89" style="edgeStyle=orthogonalEdgeStyle;rounded=0;orthogonalLoop=1;jettySize=auto;html=1;entryX=0.5;entryY=0;entryDx=0;entryDy=0;" parent="WIyWlLk6GJQsqaUBKTNV-1" source="zafRCyV8LOh7f-KUmATS-88" target="zafRCyV8LOh7f-KUmATS-86" edge="1">
          <mxGeometry relative="1" as="geometry" />
        </mxCell>
        <mxCell id="zafRCyV8LOh7f-KUmATS-90" value="Branch&lt;div&gt;Root&lt;/div&gt;" style="ellipse;whiteSpace=wrap;html=1;aspect=fixed;" parent="WIyWlLk6GJQsqaUBKTNV-1" vertex="1">
          <mxGeometry x="2097.5" y="540" width="45" height="45" as="geometry" />
        </mxCell>
        <mxCell id="zafRCyV8LOh7f-KUmATS-91" style="edgeStyle=orthogonalEdgeStyle;rounded=0;orthogonalLoop=1;jettySize=auto;html=1;" parent="WIyWlLk6GJQsqaUBKTNV-1" source="zafRCyV8LOh7f-KUmATS-92" target="zafRCyV8LOh7f-KUmATS-93" edge="1">
          <mxGeometry relative="1" as="geometry" />
        </mxCell>
        <mxCell id="zafRCyV8LOh7f-KUmATS-92" value="New&lt;div&gt;Branch&lt;/div&gt;&lt;div&gt;Root&lt;/div&gt;" style="ellipse;whiteSpace=wrap;html=1;aspect=fixed;" parent="WIyWlLk6GJQsqaUBKTNV-1" vertex="1">
          <mxGeometry x="2040" y="590" width="49" height="49" as="geometry" />
        </mxCell>
        <mxCell id="zafRCyV8LOh7f-KUmATS-93" value="" style="ellipse;whiteSpace=wrap;html=1;aspect=fixed;" parent="WIyWlLk6GJQsqaUBKTNV-1" vertex="1">
          <mxGeometry x="1974" y="646" width="48" height="48" as="geometry" />
        </mxCell>
        <mxCell id="zafRCyV8LOh7f-KUmATS-94" style="edgeStyle=orthogonalEdgeStyle;rounded=0;orthogonalLoop=1;jettySize=auto;html=1;entryX=0.5;entryY=0;entryDx=0;entryDy=0;" parent="WIyWlLk6GJQsqaUBKTNV-1" source="zafRCyV8LOh7f-KUmATS-90" target="zafRCyV8LOh7f-KUmATS-92" edge="1">
          <mxGeometry relative="1" as="geometry" />
        </mxCell>
        <mxCell id="zafRCyV8LOh7f-KUmATS-95" value="1. 현재 밸런스가 깨진&lt;div&gt;Branch의 Root 의 왼쪽자식을&amp;nbsp;&lt;/div&gt;&lt;div&gt;새로운 Branch Root 로 삼음&lt;/div&gt;" style="rounded=0;whiteSpace=wrap;html=1;" parent="WIyWlLk6GJQsqaUBKTNV-1" vertex="1">
          <mxGeometry x="1954" y="482.25" width="260.5" height="51" as="geometry" />
        </mxCell>
        <mxCell id="zafRCyV8LOh7f-KUmATS-96" value="2. Branch Root 의 왼쪽자식 연결 끊고,&amp;nbsp;&lt;div&gt;New BranchRoot 의 오른쪽 자식으로 삼는다.&lt;/div&gt;" style="rounded=0;whiteSpace=wrap;html=1;" parent="WIyWlLk6GJQsqaUBKTNV-1" vertex="1">
          <mxGeometry x="1957.5" y="704.75" width="247" height="51" as="geometry" />
        </mxCell>
        <mxCell id="zafRCyV8LOh7f-KUmATS-97" value="Branch&lt;div&gt;Root&lt;/div&gt;" style="ellipse;whiteSpace=wrap;html=1;aspect=fixed;" parent="WIyWlLk6GJQsqaUBKTNV-1" vertex="1">
          <mxGeometry x="2118" y="822.5" width="45" height="45" as="geometry" />
        </mxCell>
        <mxCell id="zafRCyV8LOh7f-KUmATS-98" style="edgeStyle=orthogonalEdgeStyle;rounded=0;orthogonalLoop=1;jettySize=auto;html=1;" parent="WIyWlLk6GJQsqaUBKTNV-1" source="zafRCyV8LOh7f-KUmATS-100" target="zafRCyV8LOh7f-KUmATS-101" edge="1">
          <mxGeometry relative="1" as="geometry" />
        </mxCell>
        <mxCell id="zafRCyV8LOh7f-KUmATS-99" style="edgeStyle=orthogonalEdgeStyle;rounded=0;orthogonalLoop=1;jettySize=auto;html=1;entryX=0.5;entryY=0;entryDx=0;entryDy=0;" parent="WIyWlLk6GJQsqaUBKTNV-1" source="zafRCyV8LOh7f-KUmATS-100" target="zafRCyV8LOh7f-KUmATS-97" edge="1">
          <mxGeometry relative="1" as="geometry" />
        </mxCell>
        <mxCell id="zafRCyV8LOh7f-KUmATS-100" value="New&lt;div&gt;Branch&lt;/div&gt;&lt;div&gt;Root&lt;/div&gt;" style="ellipse;whiteSpace=wrap;html=1;aspect=fixed;" parent="WIyWlLk6GJQsqaUBKTNV-1" vertex="1">
          <mxGeometry x="2052" y="767.75" width="49" height="49" as="geometry" />
        </mxCell>
        <mxCell id="zafRCyV8LOh7f-KUmATS-101" value="" style="ellipse;whiteSpace=wrap;html=1;aspect=fixed;" parent="WIyWlLk6GJQsqaUBKTNV-1" vertex="1">
          <mxGeometry x="1992" y="821" width="48" height="48" as="geometry" />
        </mxCell>
        <mxCell id="zafRCyV8LOh7f-KUmATS-102" value="3. 원래 Branch Root 의 부모 노드의 왼쪽 자식을&amp;nbsp;&lt;span style=&quot;background-color: initial;&quot;&gt;New Branch Root 로 바꾼다.&lt;/span&gt;" style="rounded=0;whiteSpace=wrap;html=1;" parent="WIyWlLk6GJQsqaUBKTNV-1" vertex="1">
          <mxGeometry x="1960.75" y="890.75" width="247" height="51" as="geometry" />
        </mxCell>
        <mxCell id="zafRCyV8LOh7f-KUmATS-103" value="Branch&lt;div&gt;Root&lt;/div&gt;" style="ellipse;whiteSpace=wrap;html=1;aspect=fixed;" parent="WIyWlLk6GJQsqaUBKTNV-1" vertex="1">
          <mxGeometry x="2002.25" y="1055" width="45" height="45" as="geometry" />
        </mxCell>
        <mxCell id="zafRCyV8LOh7f-KUmATS-104" style="edgeStyle=orthogonalEdgeStyle;rounded=0;orthogonalLoop=1;jettySize=auto;html=1;" parent="WIyWlLk6GJQsqaUBKTNV-1" source="zafRCyV8LOh7f-KUmATS-106" target="zafRCyV8LOh7f-KUmATS-107" edge="1">
          <mxGeometry relative="1" as="geometry" />
        </mxCell>
        <mxCell id="zafRCyV8LOh7f-KUmATS-105" style="edgeStyle=orthogonalEdgeStyle;rounded=0;orthogonalLoop=1;jettySize=auto;html=1;entryX=0.5;entryY=0;entryDx=0;entryDy=0;" parent="WIyWlLk6GJQsqaUBKTNV-1" source="zafRCyV8LOh7f-KUmATS-106" target="zafRCyV8LOh7f-KUmATS-103" edge="1">
          <mxGeometry relative="1" as="geometry" />
        </mxCell>
        <mxCell id="zafRCyV8LOh7f-KUmATS-106" value="New&lt;div&gt;Branch&lt;/div&gt;&lt;div&gt;Root&lt;/div&gt;" style="ellipse;whiteSpace=wrap;html=1;aspect=fixed;" parent="WIyWlLk6GJQsqaUBKTNV-1" vertex="1">
          <mxGeometry x="2051.25" y="998" width="49" height="49" as="geometry" />
        </mxCell>
        <mxCell id="zafRCyV8LOh7f-KUmATS-107" value="" style="ellipse;whiteSpace=wrap;html=1;aspect=fixed;" parent="WIyWlLk6GJQsqaUBKTNV-1" vertex="1">
          <mxGeometry x="2110.25" y="1052" width="48" height="48" as="geometry" />
        </mxCell>
        <mxCell id="zafRCyV8LOh7f-KUmATS-108" value="Parent" style="ellipse;whiteSpace=wrap;html=1;aspect=fixed;" parent="WIyWlLk6GJQsqaUBKTNV-1" vertex="1">
          <mxGeometry x="2111.75" y="941" width="48" height="48" as="geometry" />
        </mxCell>
        <mxCell id="zafRCyV8LOh7f-KUmATS-109" style="edgeStyle=orthogonalEdgeStyle;rounded=0;orthogonalLoop=1;jettySize=auto;html=1;entryX=0.5;entryY=0;entryDx=0;entryDy=0;" parent="WIyWlLk6GJQsqaUBKTNV-1" source="zafRCyV8LOh7f-KUmATS-108" target="zafRCyV8LOh7f-KUmATS-106" edge="1">
          <mxGeometry relative="1" as="geometry" />
        </mxCell>
        <mxCell id="zafRCyV8LOh7f-KUmATS-110" value="RR case (왼쪽 회전)" style="text;html=1;align=center;verticalAlign=middle;whiteSpace=wrap;rounded=0;" parent="WIyWlLk6GJQsqaUBKTNV-1" vertex="1">
          <mxGeometry x="1670.63" y="447.25" width="140.75" height="30" as="geometry" />
        </mxCell>
        <mxCell id="zafRCyV8LOh7f-KUmATS-111" value="RL case (오른쪽 후 왼쪽회전)" style="text;html=1;align=center;verticalAlign=middle;whiteSpace=wrap;rounded=0;" parent="WIyWlLk6GJQsqaUBKTNV-1" vertex="1">
          <mxGeometry x="2242.25" y="446.5" width="196.75" height="30" as="geometry" />
        </mxCell>
        <mxCell id="zafRCyV8LOh7f-KUmATS-112" value="NewBranchRoot 의 Branch 를&amp;nbsp;&lt;div&gt;오른쪽회전&lt;/div&gt;" style="rounded=0;whiteSpace=wrap;html=1;" parent="WIyWlLk6GJQsqaUBKTNV-1" vertex="1">
          <mxGeometry x="2236" y="481.5" width="260.5" height="51" as="geometry" />
        </mxCell>
        <mxCell id="zafRCyV8LOh7f-KUmATS-118" value="Branch&lt;div&gt;Root&lt;/div&gt;" style="ellipse;whiteSpace=wrap;html=1;aspect=fixed;" parent="WIyWlLk6GJQsqaUBKTNV-1" vertex="1">
          <mxGeometry x="2301" y="541" width="45" height="45" as="geometry" />
        </mxCell>
        <mxCell id="zafRCyV8LOh7f-KUmATS-119" style="edgeStyle=orthogonalEdgeStyle;rounded=0;orthogonalLoop=1;jettySize=auto;html=1;" parent="WIyWlLk6GJQsqaUBKTNV-1" source="zafRCyV8LOh7f-KUmATS-120" target="zafRCyV8LOh7f-KUmATS-121" edge="1">
          <mxGeometry relative="1" as="geometry" />
        </mxCell>
        <mxCell id="zafRCyV8LOh7f-KUmATS-120" value="New&lt;div&gt;Branch&lt;/div&gt;&lt;div&gt;Root&lt;/div&gt;" style="ellipse;whiteSpace=wrap;html=1;aspect=fixed;" parent="WIyWlLk6GJQsqaUBKTNV-1" vertex="1">
          <mxGeometry x="2351" y="592" width="49" height="49" as="geometry" />
        </mxCell>
        <mxCell id="zafRCyV8LOh7f-KUmATS-121" value="" style="ellipse;whiteSpace=wrap;html=1;aspect=fixed;" parent="WIyWlLk6GJQsqaUBKTNV-1" vertex="1">
          <mxGeometry x="2298" y="646" width="48" height="48" as="geometry" />
        </mxCell>
        <mxCell id="zafRCyV8LOh7f-KUmATS-122" style="edgeStyle=orthogonalEdgeStyle;rounded=0;orthogonalLoop=1;jettySize=auto;html=1;entryX=0.5;entryY=0;entryDx=0;entryDy=0;" parent="WIyWlLk6GJQsqaUBKTNV-1" source="zafRCyV8LOh7f-KUmATS-118" target="zafRCyV8LOh7f-KUmATS-120" edge="1">
          <mxGeometry relative="1" as="geometry" />
        </mxCell>
        <mxCell id="zafRCyV8LOh7f-KUmATS-129" style="edgeStyle=orthogonalEdgeStyle;rounded=0;orthogonalLoop=1;jettySize=auto;html=1;entryX=0.5;entryY=0;entryDx=0;entryDy=0;" parent="WIyWlLk6GJQsqaUBKTNV-1" source="zafRCyV8LOh7f-KUmATS-123" target="zafRCyV8LOh7f-KUmATS-126" edge="1">
          <mxGeometry relative="1" as="geometry" />
        </mxCell>
        <mxCell id="zafRCyV8LOh7f-KUmATS-123" value="Branch&lt;div&gt;Root&lt;/div&gt;" style="ellipse;whiteSpace=wrap;html=1;aspect=fixed;" parent="WIyWlLk6GJQsqaUBKTNV-1" vertex="1">
          <mxGeometry x="2301" y="761" width="45" height="45" as="geometry" />
        </mxCell>
        <mxCell id="zafRCyV8LOh7f-KUmATS-125" value="New&lt;div&gt;Branch&lt;/div&gt;&lt;div&gt;Root&lt;/div&gt;" style="ellipse;whiteSpace=wrap;html=1;aspect=fixed;" parent="WIyWlLk6GJQsqaUBKTNV-1" vertex="1">
          <mxGeometry x="2425" y="876.5" width="49" height="49" as="geometry" />
        </mxCell>
        <mxCell id="zafRCyV8LOh7f-KUmATS-130" style="edgeStyle=orthogonalEdgeStyle;rounded=0;orthogonalLoop=1;jettySize=auto;html=1;" parent="WIyWlLk6GJQsqaUBKTNV-1" source="zafRCyV8LOh7f-KUmATS-126" target="zafRCyV8LOh7f-KUmATS-125" edge="1">
          <mxGeometry relative="1" as="geometry" />
        </mxCell>
        <mxCell id="zafRCyV8LOh7f-KUmATS-126" value="New&lt;div&gt;Branch&lt;/div&gt;&lt;div&gt;Root &#39;&lt;/div&gt;" style="ellipse;whiteSpace=wrap;html=1;aspect=fixed;" parent="WIyWlLk6GJQsqaUBKTNV-1" vertex="1">
          <mxGeometry x="2365" y="822.5" width="48" height="48" as="geometry" />
        </mxCell>
        <mxCell id="zafRCyV8LOh7f-KUmATS-128" value="RRCase 왼쪽회전" style="rounded=0;whiteSpace=wrap;html=1;" parent="WIyWlLk6GJQsqaUBKTNV-1" vertex="1">
          <mxGeometry x="2245.25" y="704.75" width="260.5" height="51" as="geometry" />
        </mxCell>
        <mxCell id="zafRCyV8LOh7f-KUmATS-158" value="이진트리의 시간복잡도&amp;nbsp;&lt;div&gt;O(H)&lt;/div&gt;&lt;div&gt;&lt;br&gt;&lt;/div&gt;&lt;div&gt;H = 1 N = 1&lt;/div&gt;&lt;div&gt;H = 2 N = 3&lt;/div&gt;&lt;div&gt;H = 3 N = 7&lt;/div&gt;&lt;div&gt;H = 4 N = 15&lt;/div&gt;&lt;div&gt;&lt;br&gt;&lt;/div&gt;&lt;div&gt;N = 2&lt;span style=&quot;font-size: 10px;&quot;&gt;&lt;sup&gt;H&lt;/sup&gt;&lt;/span&gt;&amp;nbsp;- 1&lt;/div&gt;&lt;div&gt;H = log&lt;sub&gt;2&lt;/sub&gt;(N + 1)&lt;/div&gt;&lt;div&gt;O(logN)&lt;/div&gt;" style="text;html=1;align=center;verticalAlign=middle;whiteSpace=wrap;rounded=0;" parent="WIyWlLk6GJQsqaUBKTNV-1" vertex="1">
          <mxGeometry x="2372" y="15" width="159" height="179" as="geometry" />
        </mxCell>
        <mxCell id="zafRCyV8LOh7f-KUmATS-159" value="힙 구조" style="rounded=0;whiteSpace=wrap;html=1;" parent="WIyWlLk6GJQsqaUBKTNV-1" vertex="1">
          <mxGeometry x="2587" y="-80" width="120" height="30" as="geometry" />
        </mxCell>
        <mxCell id="zafRCyV8LOh7f-KUmATS-161" value="힙 영역이랑 전혀 관계 없음.&amp;nbsp;&lt;div&gt;완전이진트리&amp;nbsp;&lt;/div&gt;" style="text;html=1;align=center;verticalAlign=middle;whiteSpace=wrap;rounded=0;" parent="WIyWlLk6GJQsqaUBKTNV-1" vertex="1">
          <mxGeometry x="2725" y="-80" width="209" height="48" as="geometry" />
        </mxCell>
        <mxCell id="zafRCyV8LOh7f-KUmATS-173" style="edgeStyle=orthogonalEdgeStyle;rounded=0;orthogonalLoop=1;jettySize=auto;html=1;entryX=0.5;entryY=0;entryDx=0;entryDy=0;" parent="WIyWlLk6GJQsqaUBKTNV-1" source="zafRCyV8LOh7f-KUmATS-162" target="zafRCyV8LOh7f-KUmATS-172" edge="1">
          <mxGeometry relative="1" as="geometry" />
        </mxCell>
        <mxCell id="zafRCyV8LOh7f-KUmATS-176" style="edgeStyle=orthogonalEdgeStyle;rounded=0;orthogonalLoop=1;jettySize=auto;html=1;entryX=0.5;entryY=0;entryDx=0;entryDy=0;" parent="WIyWlLk6GJQsqaUBKTNV-1" source="zafRCyV8LOh7f-KUmATS-162" target="zafRCyV8LOh7f-KUmATS-175" edge="1">
          <mxGeometry relative="1" as="geometry" />
        </mxCell>
        <mxCell id="zafRCyV8LOh7f-KUmATS-162" value="1" style="ellipse;whiteSpace=wrap;html=1;aspect=fixed;" parent="WIyWlLk6GJQsqaUBKTNV-1" vertex="1">
          <mxGeometry x="2740" y="-16" width="58" height="58" as="geometry" />
        </mxCell>
        <mxCell id="zafRCyV8LOh7f-KUmATS-169" value="힙구조 특징 :&lt;div&gt;내가 정한 우선순위가 가장 높은 값이 항상 Root 에 존재함&lt;/div&gt;" style="text;html=1;align=center;verticalAlign=middle;whiteSpace=wrap;rounded=0;" parent="WIyWlLk6GJQsqaUBKTNV-1" vertex="1">
          <mxGeometry x="2952" y="-80" width="209" height="48" as="geometry" />
        </mxCell>
        <mxCell id="zafRCyV8LOh7f-KUmATS-171" value="Max-Heap : 제일큰수가 Root 로&lt;div&gt;Min-Heap : 제일 작은수가 Root 로&lt;/div&gt;" style="text;html=1;align=center;verticalAlign=middle;whiteSpace=wrap;rounded=0;" parent="WIyWlLk6GJQsqaUBKTNV-1" vertex="1">
          <mxGeometry x="2942" y="-5" width="271" height="22" as="geometry" />
        </mxCell>
        <mxCell id="zafRCyV8LOh7f-KUmATS-178" style="edgeStyle=orthogonalEdgeStyle;rounded=0;orthogonalLoop=1;jettySize=auto;html=1;" parent="WIyWlLk6GJQsqaUBKTNV-1" source="zafRCyV8LOh7f-KUmATS-172" edge="1">
          <mxGeometry relative="1" as="geometry">
            <mxPoint x="2636" y="122.99999999999955" as="targetPoint" />
          </mxGeometry>
        </mxCell>
        <mxCell id="FV_wPUN5_jcwhxo8XgVI-3" style="edgeStyle=orthogonalEdgeStyle;rounded=0;orthogonalLoop=1;jettySize=auto;html=1;entryX=0.5;entryY=0;entryDx=0;entryDy=0;" edge="1" parent="WIyWlLk6GJQsqaUBKTNV-1" source="zafRCyV8LOh7f-KUmATS-172" target="FV_wPUN5_jcwhxo8XgVI-2">
          <mxGeometry relative="1" as="geometry" />
        </mxCell>
        <mxCell id="zafRCyV8LOh7f-KUmATS-172" value="4" style="ellipse;whiteSpace=wrap;html=1;aspect=fixed;" parent="WIyWlLk6GJQsqaUBKTNV-1" vertex="1">
          <mxGeometry x="2676" y="44" width="58" height="58" as="geometry" />
        </mxCell>
        <mxCell id="zafRCyV8LOh7f-KUmATS-174" value="SIFT Up- Algo" style="text;html=1;align=center;verticalAlign=middle;whiteSpace=wrap;rounded=0;" parent="WIyWlLk6GJQsqaUBKTNV-1" vertex="1">
          <mxGeometry x="2966" y="39" width="112" height="38" as="geometry" />
        </mxCell>
        <mxCell id="zafRCyV8LOh7f-KUmATS-175" value="2" style="ellipse;whiteSpace=wrap;html=1;aspect=fixed;" parent="WIyWlLk6GJQsqaUBKTNV-1" vertex="1">
          <mxGeometry x="2805" y="45" width="58" height="58" as="geometry" />
        </mxCell>
        <mxCell id="zafRCyV8LOh7f-KUmATS-179" value="0" style="text;html=1;align=center;verticalAlign=middle;whiteSpace=wrap;rounded=0;" parent="WIyWlLk6GJQsqaUBKTNV-1" vertex="1">
          <mxGeometry x="2716" y="-23" width="21" height="21" as="geometry" />
        </mxCell>
        <mxCell id="zafRCyV8LOh7f-KUmATS-180" value="1" style="text;html=1;align=center;verticalAlign=middle;whiteSpace=wrap;rounded=0;" parent="WIyWlLk6GJQsqaUBKTNV-1" vertex="1">
          <mxGeometry x="2658" y="29" width="21" height="21" as="geometry" />
        </mxCell>
        <mxCell id="zafRCyV8LOh7f-KUmATS-181" value="2" style="text;html=1;align=center;verticalAlign=middle;whiteSpace=wrap;rounded=0;" parent="WIyWlLk6GJQsqaUBKTNV-1" vertex="1">
          <mxGeometry x="2792" y="42" width="21" height="21" as="geometry" />
        </mxCell>
        <mxCell id="zafRCyV8LOh7f-KUmATS-182" value="3" style="text;html=1;align=center;verticalAlign=middle;whiteSpace=wrap;rounded=0;" parent="WIyWlLk6GJQsqaUBKTNV-1" vertex="1">
          <mxGeometry x="2594" y="102" width="21" height="21" as="geometry" />
        </mxCell>
        <mxCell id="zafRCyV8LOh7f-KUmATS-183" value="1" style="whiteSpace=wrap;html=1;aspect=fixed;" parent="WIyWlLk6GJQsqaUBKTNV-1" vertex="1">
          <mxGeometry x="2974" y="88.5" width="26" height="26" as="geometry" />
        </mxCell>
        <mxCell id="zafRCyV8LOh7f-KUmATS-184" value="4" style="whiteSpace=wrap;html=1;aspect=fixed;" parent="WIyWlLk6GJQsqaUBKTNV-1" vertex="1">
          <mxGeometry x="3000" y="88.5" width="26" height="26" as="geometry" />
        </mxCell>
        <mxCell id="zafRCyV8LOh7f-KUmATS-185" value="2" style="whiteSpace=wrap;html=1;aspect=fixed;" parent="WIyWlLk6GJQsqaUBKTNV-1" vertex="1">
          <mxGeometry x="3026" y="88.5" width="26" height="26" as="geometry" />
        </mxCell>
        <mxCell id="zafRCyV8LOh7f-KUmATS-186" value="8" style="whiteSpace=wrap;html=1;aspect=fixed;" parent="WIyWlLk6GJQsqaUBKTNV-1" vertex="1">
          <mxGeometry x="3052" y="88.5" width="26" height="26" as="geometry" />
        </mxCell>
        <mxCell id="zafRCyV8LOh7f-KUmATS-187" value="SIFT Down -Algo" style="text;html=1;align=center;verticalAlign=middle;whiteSpace=wrap;rounded=0;" parent="WIyWlLk6GJQsqaUBKTNV-1" vertex="1">
          <mxGeometry x="2970" y="125" width="112" height="38" as="geometry" />
        </mxCell>
        <mxCell id="zafRCyV8LOh7f-KUmATS-189" value="Heapify Top-down (SIFT- UP) O(NLogN)&lt;div&gt;Heapifiy Botton-up (SIFT_DOWN) O(N)&lt;/div&gt;" style="text;html=1;align=center;verticalAlign=middle;whiteSpace=wrap;rounded=0;" parent="WIyWlLk6GJQsqaUBKTNV-1" vertex="1">
          <mxGeometry x="2591" y="375" width="311" height="48" as="geometry" />
        </mxCell>
        <mxCell id="zafRCyV8LOh7f-KUmATS-190" value="8" style="ellipse;whiteSpace=wrap;html=1;aspect=fixed;" parent="WIyWlLk6GJQsqaUBKTNV-1" vertex="1">
          <mxGeometry x="2621" y="114.5" width="58" height="58" as="geometry" />
        </mxCell>
        <mxCell id="FV_wPUN5_jcwhxo8XgVI-2" value="5" style="ellipse;whiteSpace=wrap;html=1;aspect=fixed;" vertex="1" parent="WIyWlLk6GJQsqaUBKTNV-1">
          <mxGeometry x="2711" y="121" width="58" height="58" as="geometry" />
        </mxCell>
        <mxCell id="FV_wPUN5_jcwhxo8XgVI-4" value="4" style="text;html=1;align=center;verticalAlign=middle;whiteSpace=wrap;rounded=0;" vertex="1" parent="WIyWlLk6GJQsqaUBKTNV-1">
          <mxGeometry x="2698" y="109" width="21" height="21" as="geometry" />
        </mxCell>
        <mxCell id="FV_wPUN5_jcwhxo8XgVI-5" value="해시테이블" style="rounded=0;whiteSpace=wrap;html=1;" vertex="1" parent="WIyWlLk6GJQsqaUBKTNV-1">
          <mxGeometry x="3231" y="-87" width="120" height="30" as="geometry" />
        </mxCell>
        <mxCell id="FV_wPUN5_jcwhxo8XgVI-6" value="" style="whiteSpace=wrap;html=1;aspect=fixed;" vertex="1" parent="WIyWlLk6GJQsqaUBKTNV-1">
          <mxGeometry x="3655" y="-53" width="36" height="36" as="geometry" />
        </mxCell>
        <mxCell id="FV_wPUN5_jcwhxo8XgVI-7" value="key" style="rounded=0;whiteSpace=wrap;html=1;" vertex="1" parent="WIyWlLk6GJQsqaUBKTNV-1">
          <mxGeometry x="3655" y="-70" width="36" height="17" as="geometry" />
        </mxCell>
        <mxCell id="FV_wPUN5_jcwhxo8XgVI-8" value="" style="whiteSpace=wrap;html=1;aspect=fixed;" vertex="1" parent="WIyWlLk6GJQsqaUBKTNV-1">
          <mxGeometry x="3693" y="-53" width="36" height="36" as="geometry" />
        </mxCell>
        <mxCell id="FV_wPUN5_jcwhxo8XgVI-9" value="value" style="rounded=0;whiteSpace=wrap;html=1;" vertex="1" parent="WIyWlLk6GJQsqaUBKTNV-1">
          <mxGeometry x="3693" y="-70" width="36" height="17" as="geometry" />
        </mxCell>
        <mxCell id="FV_wPUN5_jcwhxo8XgVI-12" value="" style="whiteSpace=wrap;html=1;aspect=fixed;" vertex="1" parent="WIyWlLk6GJQsqaUBKTNV-1">
          <mxGeometry x="3655" y="-14" width="36" height="36" as="geometry" />
        </mxCell>
        <mxCell id="FV_wPUN5_jcwhxo8XgVI-13" value="" style="whiteSpace=wrap;html=1;aspect=fixed;" vertex="1" parent="WIyWlLk6GJQsqaUBKTNV-1">
          <mxGeometry x="3693" y="-14" width="36" height="36" as="geometry" />
        </mxCell>
        <mxCell id="FV_wPUN5_jcwhxo8XgVI-14" value="" style="whiteSpace=wrap;html=1;aspect=fixed;" vertex="1" parent="WIyWlLk6GJQsqaUBKTNV-1">
          <mxGeometry x="3655" y="25" width="36" height="36" as="geometry" />
        </mxCell>
        <mxCell id="FV_wPUN5_jcwhxo8XgVI-15" value="" style="whiteSpace=wrap;html=1;aspect=fixed;" vertex="1" parent="WIyWlLk6GJQsqaUBKTNV-1">
          <mxGeometry x="3693" y="25" width="36" height="36" as="geometry" />
        </mxCell>
        <mxCell id="FV_wPUN5_jcwhxo8XgVI-16" value="" style="whiteSpace=wrap;html=1;aspect=fixed;" vertex="1" parent="WIyWlLk6GJQsqaUBKTNV-1">
          <mxGeometry x="3655" y="64" width="36" height="36" as="geometry" />
        </mxCell>
        <mxCell id="FV_wPUN5_jcwhxo8XgVI-17" value="" style="whiteSpace=wrap;html=1;aspect=fixed;" vertex="1" parent="WIyWlLk6GJQsqaUBKTNV-1">
          <mxGeometry x="3693" y="64" width="36" height="36" as="geometry" />
        </mxCell>
        <mxCell id="FV_wPUN5_jcwhxo8XgVI-18" value="&quot;GI&quot;" style="whiteSpace=wrap;html=1;aspect=fixed;" vertex="1" parent="WIyWlLk6GJQsqaUBKTNV-1">
          <mxGeometry x="3655" y="102.5" width="35" height="35" as="geometry" />
        </mxCell>
        <mxCell id="FV_wPUN5_jcwhxo8XgVI-19" value="95" style="whiteSpace=wrap;html=1;aspect=fixed;" vertex="1" parent="WIyWlLk6GJQsqaUBKTNV-1">
          <mxGeometry x="3693" y="102.5" width="36" height="36" as="geometry" />
        </mxCell>
        <mxCell id="FV_wPUN5_jcwhxo8XgVI-23" style="edgeStyle=orthogonalEdgeStyle;rounded=0;orthogonalLoop=1;jettySize=auto;html=1;entryX=0;entryY=0.25;entryDx=0;entryDy=0;" edge="1" parent="WIyWlLk6GJQsqaUBKTNV-1" source="FV_wPUN5_jcwhxo8XgVI-20" target="FV_wPUN5_jcwhxo8XgVI-22">
          <mxGeometry relative="1" as="geometry" />
        </mxCell>
        <mxCell id="FV_wPUN5_jcwhxo8XgVI-20" value="&quot;GI&quot;, 95" style="text;html=1;align=center;verticalAlign=middle;whiteSpace=wrap;rounded=0;" vertex="1" parent="WIyWlLk6GJQsqaUBKTNV-1">
          <mxGeometry x="3237" y="-23" width="60" height="30" as="geometry" />
        </mxCell>
        <mxCell id="FV_wPUN5_jcwhxo8XgVI-25" style="edgeStyle=orthogonalEdgeStyle;rounded=0;orthogonalLoop=1;jettySize=auto;html=1;entryX=0;entryY=0.5;entryDx=0;entryDy=0;exitX=1;exitY=0.25;exitDx=0;exitDy=0;" edge="1" parent="WIyWlLk6GJQsqaUBKTNV-1" source="FV_wPUN5_jcwhxo8XgVI-22" target="FV_wPUN5_jcwhxo8XgVI-24">
          <mxGeometry relative="1" as="geometry" />
        </mxCell>
        <mxCell id="FV_wPUN5_jcwhxo8XgVI-38" style="edgeStyle=orthogonalEdgeStyle;rounded=0;orthogonalLoop=1;jettySize=auto;html=1;entryX=0;entryY=0.5;entryDx=0;entryDy=0;exitX=1;exitY=0.75;exitDx=0;exitDy=0;" edge="1" parent="WIyWlLk6GJQsqaUBKTNV-1" source="FV_wPUN5_jcwhxo8XgVI-22" target="FV_wPUN5_jcwhxo8XgVI-37">
          <mxGeometry relative="1" as="geometry" />
        </mxCell>
        <mxCell id="FV_wPUN5_jcwhxo8XgVI-22" value="Hash()" style="rounded=0;whiteSpace=wrap;html=1;" vertex="1" parent="WIyWlLk6GJQsqaUBKTNV-1">
          <mxGeometry x="3340" y="-3" width="120" height="60" as="geometry" />
        </mxCell>
        <mxCell id="FV_wPUN5_jcwhxo8XgVI-24" value="144 % Capacity&lt;div&gt;= 4&lt;/div&gt;" style="text;html=1;align=center;verticalAlign=middle;whiteSpace=wrap;rounded=0;" vertex="1" parent="WIyWlLk6GJQsqaUBKTNV-1">
          <mxGeometry x="3502" y="-3" width="101" height="30" as="geometry" />
        </mxCell>
        <mxCell id="FV_wPUN5_jcwhxo8XgVI-27" value="0" style="text;html=1;align=center;verticalAlign=middle;whiteSpace=wrap;rounded=0;" vertex="1" parent="WIyWlLk6GJQsqaUBKTNV-1">
          <mxGeometry x="3621" y="-49" width="31" height="30" as="geometry" />
        </mxCell>
        <mxCell id="FV_wPUN5_jcwhxo8XgVI-28" value="1" style="text;html=1;align=center;verticalAlign=middle;whiteSpace=wrap;rounded=0;" vertex="1" parent="WIyWlLk6GJQsqaUBKTNV-1">
          <mxGeometry x="3621" y="-13" width="31" height="30" as="geometry" />
        </mxCell>
        <mxCell id="FV_wPUN5_jcwhxo8XgVI-29" value="2&lt;span style=&quot;color: rgba(0, 0, 0, 0); font-family: monospace; font-size: 0px; text-align: start; text-wrap: nowrap;&quot;&gt;%3CmxGraphModel%3E%3Croot%3E%3CmxCell%20id%3D%220%22%2F%3E%3CmxCell%20id%3D%221%22%20parent%3D%220%22%2F%3E%3CmxCell%20id%3D%222%22%20value%3D%220%22%20style%3D%22text%3Bhtml%3D1%3Balign%3Dcenter%3BverticalAlign%3Dmiddle%3BwhiteSpace%3Dwrap%3Brounded%3D0%3B%22%20vertex%3D%221%22%20parent%3D%221%22%3E%3CmxGeometry%20x%3D%223621%22%20y%3D%22-49%22%20width%3D%2231%22%20height%3D%2230%22%20as%3D%22geometry%22%2F%3E%3C%2FmxCell%3E%3C%2Froot%3E%3C%2FmxGraphModel%3E&lt;/span&gt;" style="text;html=1;align=center;verticalAlign=middle;whiteSpace=wrap;rounded=0;" vertex="1" parent="WIyWlLk6GJQsqaUBKTNV-1">
          <mxGeometry x="3624" y="27" width="31" height="30" as="geometry" />
        </mxCell>
        <mxCell id="FV_wPUN5_jcwhxo8XgVI-30" value="3" style="text;html=1;align=center;verticalAlign=middle;whiteSpace=wrap;rounded=0;" vertex="1" parent="WIyWlLk6GJQsqaUBKTNV-1">
          <mxGeometry x="3624" y="67" width="31" height="30" as="geometry" />
        </mxCell>
        <mxCell id="FV_wPUN5_jcwhxo8XgVI-31" value="4" style="text;html=1;align=center;verticalAlign=middle;whiteSpace=wrap;rounded=0;" vertex="1" parent="WIyWlLk6GJQsqaUBKTNV-1">
          <mxGeometry x="3624" y="105" width="31" height="30" as="geometry" />
        </mxCell>
        <mxCell id="FV_wPUN5_jcwhxo8XgVI-32" value="적당한 크기, 적당한 충돌이 일어나는것이&lt;div&gt;이상적이다&lt;/div&gt;" style="text;html=1;align=center;verticalAlign=middle;whiteSpace=wrap;rounded=0;" vertex="1" parent="WIyWlLk6GJQsqaUBKTNV-1">
          <mxGeometry x="3380" y="-95.5" width="229" height="47" as="geometry" />
        </mxCell>
        <mxCell id="FV_wPUN5_jcwhxo8XgVI-36" style="edgeStyle=orthogonalEdgeStyle;rounded=0;orthogonalLoop=1;jettySize=auto;html=1;entryX=0;entryY=0.75;entryDx=0;entryDy=0;" edge="1" parent="WIyWlLk6GJQsqaUBKTNV-1" source="FV_wPUN5_jcwhxo8XgVI-33" target="FV_wPUN5_jcwhxo8XgVI-22">
          <mxGeometry relative="1" as="geometry" />
        </mxCell>
        <mxCell id="FV_wPUN5_jcwhxo8XgVI-33" value="&quot;FJ&quot;, 85" style="text;html=1;align=center;verticalAlign=middle;whiteSpace=wrap;rounded=0;" vertex="1" parent="WIyWlLk6GJQsqaUBKTNV-1">
          <mxGeometry x="3237" y="50" width="60" height="30" as="geometry" />
        </mxCell>
        <mxCell id="FV_wPUN5_jcwhxo8XgVI-37" value="144 % Capacity&lt;div&gt;= 4&lt;/div&gt;" style="text;html=1;align=center;verticalAlign=middle;whiteSpace=wrap;rounded=0;" vertex="1" parent="WIyWlLk6GJQsqaUBKTNV-1">
          <mxGeometry x="3502" y="37" width="101" height="30" as="geometry" />
        </mxCell>
        <mxCell id="FV_wPUN5_jcwhxo8XgVI-41" value="해시충돌시 해결방안&lt;div&gt;&lt;br&gt;&lt;/div&gt;&lt;div&gt;1. 체이닝&amp;nbsp;&lt;/div&gt;&lt;div&gt;- LinkedList 형태로&amp;nbsp;&lt;/div&gt;&lt;div&gt;KeyValuePair 에 대한 데이터를 포함하는 노드로 구성하고&amp;nbsp;&lt;/div&gt;&lt;div&gt;충돌시 노드의 Next로 참조한다.&lt;/div&gt;&lt;div&gt;&lt;br&gt;&lt;/div&gt;&lt;div&gt;&lt;br&gt;&lt;/div&gt;&lt;div&gt;&lt;br&gt;&lt;/div&gt;&lt;div&gt;2. 오픈어드레싱&lt;/div&gt;&lt;div&gt;&lt;br&gt;&lt;/div&gt;&lt;div&gt;특정 규칙에따라 다음 인덱스를 부여&lt;/div&gt;" style="text;html=1;align=left;verticalAlign=top;whiteSpace=wrap;rounded=0;" vertex="1" parent="WIyWlLk6GJQsqaUBKTNV-1">
          <mxGeometry x="3795" y="-134" width="177" height="214" as="geometry" />
        </mxCell>
        <mxCell id="FV_wPUN5_jcwhxo8XgVI-46" value="" style="whiteSpace=wrap;html=1;aspect=fixed;" vertex="1" parent="WIyWlLk6GJQsqaUBKTNV-1">
          <mxGeometry x="3655" y="144" width="36" height="36" as="geometry" />
        </mxCell>
        <mxCell id="FV_wPUN5_jcwhxo8XgVI-47" value="" style="whiteSpace=wrap;html=1;aspect=fixed;" vertex="1" parent="WIyWlLk6GJQsqaUBKTNV-1">
          <mxGeometry x="3693" y="144" width="36" height="36" as="geometry" />
        </mxCell>
        <mxCell id="FV_wPUN5_jcwhxo8XgVI-48" value="&quot;FJ&quot;" style="whiteSpace=wrap;html=1;aspect=fixed;" vertex="1" parent="WIyWlLk6GJQsqaUBKTNV-1">
          <mxGeometry x="3655" y="183" width="36" height="36" as="geometry" />
        </mxCell>
        <mxCell id="FV_wPUN5_jcwhxo8XgVI-49" value="85" style="whiteSpace=wrap;html=1;aspect=fixed;" vertex="1" parent="WIyWlLk6GJQsqaUBKTNV-1">
          <mxGeometry x="3693" y="183" width="36" height="36" as="geometry" />
        </mxCell>
        <mxCell id="FV_wPUN5_jcwhxo8XgVI-50" value="" style="whiteSpace=wrap;html=1;aspect=fixed;" vertex="1" parent="WIyWlLk6GJQsqaUBKTNV-1">
          <mxGeometry x="3655" y="222" width="36" height="36" as="geometry" />
        </mxCell>
        <mxCell id="FV_wPUN5_jcwhxo8XgVI-51" value="" style="whiteSpace=wrap;html=1;aspect=fixed;" vertex="1" parent="WIyWlLk6GJQsqaUBKTNV-1">
          <mxGeometry x="3693" y="222" width="36" height="36" as="geometry" />
        </mxCell>
        <mxCell id="FV_wPUN5_jcwhxo8XgVI-52" value="" style="whiteSpace=wrap;html=1;aspect=fixed;" vertex="1" parent="WIyWlLk6GJQsqaUBKTNV-1">
          <mxGeometry x="3655" y="261" width="36" height="36" as="geometry" />
        </mxCell>
        <mxCell id="FV_wPUN5_jcwhxo8XgVI-53" value="" style="whiteSpace=wrap;html=1;aspect=fixed;" vertex="1" parent="WIyWlLk6GJQsqaUBKTNV-1">
          <mxGeometry x="3693" y="261" width="36" height="36" as="geometry" />
        </mxCell>
        <mxCell id="FV_wPUN5_jcwhxo8XgVI-54" value="" style="whiteSpace=wrap;html=1;aspect=fixed;" vertex="1" parent="WIyWlLk6GJQsqaUBKTNV-1">
          <mxGeometry x="3655" y="300" width="36" height="36" as="geometry" />
        </mxCell>
        <mxCell id="FV_wPUN5_jcwhxo8XgVI-55" value="" style="whiteSpace=wrap;html=1;aspect=fixed;" vertex="1" parent="WIyWlLk6GJQsqaUBKTNV-1">
          <mxGeometry x="3693" y="300" width="36" height="36" as="geometry" />
        </mxCell>
        <mxCell id="FV_wPUN5_jcwhxo8XgVI-56" value="" style="whiteSpace=wrap;html=1;aspect=fixed;" vertex="1" parent="WIyWlLk6GJQsqaUBKTNV-1">
          <mxGeometry x="3655" y="339" width="36" height="36" as="geometry" />
        </mxCell>
        <mxCell id="FV_wPUN5_jcwhxo8XgVI-57" value="" style="whiteSpace=wrap;html=1;aspect=fixed;" vertex="1" parent="WIyWlLk6GJQsqaUBKTNV-1">
          <mxGeometry x="3693" y="339" width="36" height="36" as="geometry" />
        </mxCell>
        <mxCell id="FV_wPUN5_jcwhxo8XgVI-58" value="6" style="text;html=1;align=center;verticalAlign=middle;whiteSpace=wrap;rounded=0;" vertex="1" parent="WIyWlLk6GJQsqaUBKTNV-1">
          <mxGeometry x="3624" y="186" width="31" height="30" as="geometry" />
        </mxCell>
        <mxCell id="FV_wPUN5_jcwhxo8XgVI-59" value="10" style="text;html=1;align=center;verticalAlign=middle;whiteSpace=wrap;rounded=0;" vertex="1" parent="WIyWlLk6GJQsqaUBKTNV-1">
          <mxGeometry x="3621" y="342" width="31" height="30" as="geometry" />
        </mxCell>
        <mxCell id="FV_wPUN5_jcwhxo8XgVI-60" value="*HashSet : key 값을 별도로 저장하지 않기때문에, value 중복이 일어나면 무시함.&amp;nbsp;&lt;div&gt;-&amp;gt; 중복이 없는 Value 들만 저장하고, 빠르게 인덱스 탐색 해야한다면 사용&lt;/div&gt;" style="text;html=1;align=center;verticalAlign=middle;whiteSpace=wrap;rounded=0;" vertex="1" parent="WIyWlLk6GJQsqaUBKTNV-1">
          <mxGeometry x="3242" y="119.5" width="270" height="61" as="geometry" />
        </mxCell>
        <mxCell id="FV_wPUN5_jcwhxo8XgVI-62" value="HashSet / HashTable 의 탐색 시간복잡도&lt;div&gt;O(N). 물론 평균적으로는 O(1) 에 가깝다.&lt;/div&gt;&lt;div&gt;&lt;br&gt;&lt;/div&gt;&lt;div&gt;최악의 경우 :&amp;nbsp;&lt;/div&gt;&lt;div&gt;삽입한 모든 아이템이 충돌을 했고,&amp;nbsp;&lt;/div&gt;&lt;div&gt;내가 찾으려는 키값도 충돌이 일어났는데&amp;nbsp;&lt;/div&gt;&lt;div&gt;해당 키값은 자료구조에 존재하지 않을때&lt;/div&gt;&lt;div&gt;&lt;br&gt;&lt;/div&gt;" style="text;html=1;align=left;verticalAlign=top;whiteSpace=wrap;rounded=0;" vertex="1" parent="WIyWlLk6GJQsqaUBKTNV-1">
          <mxGeometry x="3758" y="156.5" width="288" height="167" as="geometry" />
        </mxCell>
        <mxCell id="FV_wPUN5_jcwhxo8XgVI-63" value="&lt;div&gt;Bucket (버켓)&lt;/div&gt;&lt;div&gt;Entry 의 인덱스 저장&lt;/div&gt;&lt;div&gt;&lt;br&gt;&lt;/div&gt;Entry (진입점)&lt;div&gt;{&lt;br&gt;&lt;div&gt;KeyValue 쌍,&amp;nbsp;&lt;/div&gt;&lt;div&gt;NextEntry 참조&lt;/div&gt;&lt;/div&gt;&lt;div&gt;}&lt;/div&gt;" style="text;html=1;align=left;verticalAlign=middle;whiteSpace=wrap;rounded=0;" vertex="1" parent="WIyWlLk6GJQsqaUBKTNV-1">
          <mxGeometry x="3026" y="201" width="120" height="120" as="geometry" />
        </mxCell>
        <mxCell id="FV_wPUN5_jcwhxo8XgVI-67" value="Buckets (Hashcode의 % 연산 결과로 인덱스접근하여 EntryIndex 를 검색하는 배열)" style="rounded=0;whiteSpace=wrap;html=1;" vertex="1" parent="WIyWlLk6GJQsqaUBKTNV-1">
          <mxGeometry x="2952" y="388" width="262" height="32" as="geometry" />
        </mxCell>
        <mxCell id="FV_wPUN5_jcwhxo8XgVI-68" value="Entries (Key,Value 에 대한 데이터 + 다음 EntryIndex를 포함하는 배열)" style="rounded=0;whiteSpace=wrap;html=1;" vertex="1" parent="WIyWlLk6GJQsqaUBKTNV-1">
          <mxGeometry x="3226" y="388" width="254" height="32" as="geometry" />
        </mxCell>
        <mxCell id="FV_wPUN5_jcwhxo8XgVI-70" value="-1" style="whiteSpace=wrap;html=1;aspect=fixed;" vertex="1" parent="WIyWlLk6GJQsqaUBKTNV-1">
          <mxGeometry x="2992.5" y="438.5" width="41" height="41" as="geometry" />
        </mxCell>
        <mxCell id="FV_wPUN5_jcwhxo8XgVI-71" value="-1" style="whiteSpace=wrap;html=1;aspect=fixed;" vertex="1" parent="WIyWlLk6GJQsqaUBKTNV-1">
          <mxGeometry x="2992.5" y="479.5" width="41" height="41" as="geometry" />
        </mxCell>
        <mxCell id="FV_wPUN5_jcwhxo8XgVI-72" value="-1" style="whiteSpace=wrap;html=1;aspect=fixed;" vertex="1" parent="WIyWlLk6GJQsqaUBKTNV-1">
          <mxGeometry x="2992.5" y="520.5" width="41" height="41" as="geometry" />
        </mxCell>
        <mxCell id="FV_wPUN5_jcwhxo8XgVI-73" value="-1" style="whiteSpace=wrap;html=1;aspect=fixed;" vertex="1" parent="WIyWlLk6GJQsqaUBKTNV-1">
          <mxGeometry x="2992.5" y="561.5" width="41" height="41" as="geometry" />
        </mxCell>
        <mxCell id="FV_wPUN5_jcwhxo8XgVI-74" value="2" style="whiteSpace=wrap;html=1;aspect=fixed;" vertex="1" parent="WIyWlLk6GJQsqaUBKTNV-1">
          <mxGeometry x="2992.5" y="603" width="41" height="41" as="geometry" />
        </mxCell>
        <mxCell id="FV_wPUN5_jcwhxo8XgVI-80" value="&quot;GI&quot; 의 BucketIndex = 144 % 5&lt;div&gt;= 4&lt;/div&gt;" style="text;html=1;align=center;verticalAlign=middle;whiteSpace=wrap;rounded=0;" vertex="1" parent="WIyWlLk6GJQsqaUBKTNV-1">
          <mxGeometry x="2940" y="684" width="211" height="30" as="geometry" />
        </mxCell>
        <mxCell id="FV_wPUN5_jcwhxo8XgVI-81" value="&quot;GI&quot; 의 EntryIndex = 현재 아이템수&lt;div&gt;= 0&lt;/div&gt;" style="text;html=1;align=center;verticalAlign=middle;whiteSpace=wrap;rounded=0;" vertex="1" parent="WIyWlLk6GJQsqaUBKTNV-1">
          <mxGeometry x="3237" y="679" width="211" height="30" as="geometry" />
        </mxCell>
        <mxCell id="FV_wPUN5_jcwhxo8XgVI-82" value="&quot;GI&quot;&lt;div&gt;95&lt;/div&gt;&lt;div&gt;nextEntryIndex :-1&lt;/div&gt;" style="rounded=0;whiteSpace=wrap;html=1;" vertex="1" parent="WIyWlLk6GJQsqaUBKTNV-1">
          <mxGeometry x="3312" y="438.75" width="120" height="40.25" as="geometry" />
        </mxCell>
        <mxCell id="FV_wPUN5_jcwhxo8XgVI-83" value="" style="rounded=0;whiteSpace=wrap;html=1;" vertex="1" parent="WIyWlLk6GJQsqaUBKTNV-1">
          <mxGeometry x="3312" y="605.75" width="120" height="40.25" as="geometry" />
        </mxCell>
        <mxCell id="FV_wPUN5_jcwhxo8XgVI-84" value="&quot;FJ&quot;&lt;div&gt;85&lt;/div&gt;&lt;div&gt;nextEntryIndex : 0&lt;/div&gt;" style="rounded=0;whiteSpace=wrap;html=1;" vertex="1" parent="WIyWlLk6GJQsqaUBKTNV-1">
          <mxGeometry x="3312" y="482.25" width="120" height="40.25" as="geometry" />
        </mxCell>
        <mxCell id="FV_wPUN5_jcwhxo8XgVI-85" value="&quot;EK&quot;&lt;div&gt;23&lt;/div&gt;&lt;div&gt;nextEntryIndex : 1&lt;/div&gt;" style="rounded=0;whiteSpace=wrap;html=1;" vertex="1" parent="WIyWlLk6GJQsqaUBKTNV-1">
          <mxGeometry x="3312" y="522.5" width="120" height="40.25" as="geometry" />
        </mxCell>
        <mxCell id="FV_wPUN5_jcwhxo8XgVI-86" value="" style="rounded=0;whiteSpace=wrap;html=1;" vertex="1" parent="WIyWlLk6GJQsqaUBKTNV-1">
          <mxGeometry x="3312" y="564" width="120" height="40.25" as="geometry" />
        </mxCell>
        <mxCell id="FV_wPUN5_jcwhxo8XgVI-87" value="&quot;FJ&quot; 의 EntryIndex = 현재 아이템수&lt;div&gt;= 1&lt;/div&gt;" style="text;html=1;align=center;verticalAlign=middle;whiteSpace=wrap;rounded=0;" vertex="1" parent="WIyWlLk6GJQsqaUBKTNV-1">
          <mxGeometry x="3242" y="731" width="211" height="30" as="geometry" />
        </mxCell>
        <mxCell id="FV_wPUN5_jcwhxo8XgVI-88" value="&quot;FJ&quot; 의 BucketIndex = 144 % 5&lt;div&gt;= 4&lt;/div&gt;" style="text;html=1;align=center;verticalAlign=middle;whiteSpace=wrap;rounded=0;" vertex="1" parent="WIyWlLk6GJQsqaUBKTNV-1">
          <mxGeometry x="2940" y="737.75" width="211" height="30" as="geometry" />
        </mxCell>
        <mxCell id="FV_wPUN5_jcwhxo8XgVI-89" value="&quot;EK&quot; 의 EntryIndex = 현재 아이템수&lt;div&gt;= 2&lt;/div&gt;" style="text;html=1;align=center;verticalAlign=middle;whiteSpace=wrap;rounded=0;" vertex="1" parent="WIyWlLk6GJQsqaUBKTNV-1">
          <mxGeometry x="3243" y="777" width="211" height="30" as="geometry" />
        </mxCell>
        <mxCell id="FV_wPUN5_jcwhxo8XgVI-90" value="&quot;EK&quot; 의 BucketIndex = 144 % 5&lt;div&gt;= 4&lt;/div&gt;" style="text;html=1;align=center;verticalAlign=middle;whiteSpace=wrap;rounded=0;" vertex="1" parent="WIyWlLk6GJQsqaUBKTNV-1">
          <mxGeometry x="2938" y="782" width="211" height="30" as="geometry" />
        </mxCell>
      </root>
    </mxGraphModel>
  </diagram>
</mxfile>
